<?xml version="1.0" encoding="utf-8"?>
<!-- Generator: Adobe Illustrator 18.1.1, SVG Export Plug-In . SVG Version: 6.00 Build 0)  -->
<!DOCTYPE svg PUBLIC "-//W3C//DTD SVG 1.1//EN" "http://www.w3.org/Graphics/SVG/1.1/DTD/svg11.dtd">
<svg version="1.1" id="Layer_1" xmlns="http://www.w3.org/2000/svg" xmlns:xlink="http://www.w3.org/1999/xlink" x="0px" y="0px"
	 viewBox="6 -6 512 512" enable-background="new 6 -6 512 512" xml:space="preserve">
<path id="facebook-circle-outline-icon" fill="#FFFFFF" d="M262.4,84c44.3,0,86,17.3,117.4,48.6c31.4,31.4,48.6,73,48.6,117.4
	s-17.3,86-48.6,117.4c-31.4,31.4-73,48.6-117.4,48.6s-86-17.3-117.4-48.6c-31.4-31.4-48.6-73-48.6-117.4s17.3-86,48.6-117.4
	C176.4,101.3,218.1,84,262.4,84 M262.4,44c-113.8,0-206,92.2-206,206s92.2,206,206,206s206-92.2,206-206S376.2,44,262.4,44L262.4,44
	z M234.1,212.1h-23.5v38.4h23.5v112.8h45.2V250h31.6l3.4-37.9h-34.9c0,0,0-14.2,0-21.6c0-8.9,1.8-12.5,10.4-12.5c7,0,24.5,0,24.5,0
	v-39.3c0,0-25.8,0-31.3,0c-33.6,0-48.8,14.8-48.8,43.2C234.1,206.6,234.1,212.1,234.1,212.1z"/>
</svg>
