<?xml version="1.0" encoding="utf-8"?>
<!-- Generator: Adobe Illustrator 18.1.1, SVG Export Plug-In . SVG Version: 6.00 Build 0)  -->
<!DOCTYPE svg PUBLIC "-//W3C//DTD SVG 1.1//EN" "http://www.w3.org/Graphics/SVG/1.1/DTD/svg11.dtd">
<svg version="1.1" id="Layer_1" xmlns="http://www.w3.org/2000/svg" xmlns:xlink="http://www.w3.org/1999/xlink" x="0px" y="0px"
	 viewBox="0 0 367.8 469.2" enable-background="new 0 0 367.8 469.2" xml:space="preserve">
<g>
	<rect x="0" y="0" fill="#FFFFFF" width="367.8" height="469.2"/>
	<g>
		<g>
			<polygon fill="#79B943" points="254.1,20.7 45.3,20.7 57.9,42.6 45.3,64.4 254.1,64.4 266.7,42.6 			"/>
			<g>
				<g>
					<path fill="#FFFFFF" d="M70.1,38.9c0-0.6,0.1-1.2,0.3-1.7c0.2-0.5,0.5-0.9,0.8-1.3c0.5-0.4,1.1-0.8,1.8-1
						c0.7-0.2,1.6-0.4,2.6-0.4c0.4,0,0.7,0,1.1,0c0.4,0,0.7,0.1,1.1,0.1c0.4,0.1,0.7,0.1,1,0.2c0.3,0.1,0.6,0.1,0.8,0.2
						c0.2,0.1,0.4,0.2,0.5,0.3c0.1,0.1,0.1,0.2,0.1,0.5v3h-2.2c-0.1-0.2-0.2-0.5-0.2-0.8c-0.1-0.4-0.1-0.7-0.2-1
						C76.9,37,76.3,37,75.6,37c-0.4,0-0.8,0-1.2,0.1c-0.4,0.1-0.7,0.2-0.9,0.4c-0.3,0.3-0.5,0.6-0.5,1.1c0,0.5,0.2,0.9,0.5,1.1
						c0.3,0.3,0.9,0.5,1.6,0.7l1.7,0.5c0.7,0.2,1.3,0.5,1.8,0.7c0.5,0.3,0.9,0.6,1.2,1c0.6,0.7,0.9,1.6,0.9,2.7
						c0,0.6-0.1,1.2-0.3,1.7c-0.2,0.5-0.5,1-0.8,1.3c-0.5,0.5-1.1,0.8-1.8,1.1c-0.8,0.2-1.7,0.4-2.8,0.4c-0.4,0-0.7,0-1.1,0
						c-0.4,0-0.7-0.1-1.1-0.1c-0.4,0-0.7-0.1-1-0.1c-0.3-0.1-0.6-0.1-0.8-0.2c-0.3-0.1-0.5-0.2-0.5-0.3c-0.1-0.1-0.1-0.3-0.1-0.5v-3
						h2.3c0.1,0.2,0.2,0.4,0.2,0.8c0.1,0.4,0.1,0.7,0.2,0.9c0.2,0.1,0.5,0.1,0.9,0.2c0.4,0,0.8,0.1,1.2,0.1c1,0,1.8-0.2,2.2-0.6
						c0.3-0.3,0.5-0.7,0.5-1.2c0-0.5-0.1-0.9-0.4-1.1c-0.3-0.3-0.8-0.5-1.4-0.7l-1.9-0.6c-0.7-0.2-1.2-0.4-1.7-0.6
						c-0.5-0.2-0.9-0.5-1.2-0.8c-0.3-0.3-0.6-0.7-0.8-1.2C70.2,40.1,70.1,39.6,70.1,38.9z"/>
					<path fill="#FFFFFF" d="M86.7,39.8c0.5-0.3,1-0.6,1.5-0.8c0.5-0.2,1.1-0.3,1.6-0.3c0.7,0,1.3,0.1,1.7,0.4
						c0.5,0.3,0.9,0.7,1.2,1.1c0.3,0.5,0.5,1.1,0.7,1.7c0.1,0.7,0.2,1.4,0.2,2.2c0,1-0.1,1.9-0.3,2.6c-0.2,0.7-0.5,1.3-0.8,1.8
						c-0.4,0.4-0.8,0.8-1.3,1c-0.5,0.2-1,0.3-1.6,0.3c-0.5,0-1-0.1-1.5-0.2c-0.5-0.2-1-0.4-1.4-0.6v5.4h-3V41h-1.5v-1.9
						c0.4-0.1,0.9-0.1,1.4-0.1c0.5,0,0.9-0.1,1.3-0.1c0.5,0,0.9,0.1,1.2,0.2C86.4,39.3,86.6,39.5,86.7,39.8z M86.7,47.1
						c0.3,0.1,0.6,0.2,0.9,0.3c0.3,0.1,0.7,0.1,1,0.1c0.3,0,0.6,0,0.8-0.1c0.2-0.1,0.4-0.3,0.6-0.5c0.1-0.2,0.3-0.6,0.3-1
						c0.1-0.4,0.1-0.9,0.1-1.6c0-0.6,0-1-0.1-1.4c-0.1-0.4-0.2-0.7-0.3-0.9c-0.2-0.2-0.3-0.4-0.6-0.5c-0.2-0.1-0.5-0.2-0.9-0.2
						c-0.3,0-0.6,0-0.9,0.1c-0.4,0.1-0.7,0.1-0.9,0.2V47.1z"/>
					<path fill="#FFFFFF" d="M98.2,45.2c0,0.3,0.1,0.6,0.2,0.9c0.1,0.3,0.2,0.5,0.4,0.7c0.2,0.2,0.6,0.4,1,0.5
						c0.4,0.1,1,0.2,1.6,0.2h3.1v1.9c-0.5,0.1-1.1,0.2-1.8,0.3c-0.7,0.1-1.4,0.1-2.1,0.1c-1,0-1.8-0.1-2.5-0.4
						c-0.7-0.2-1.2-0.6-1.7-1c-0.5-0.5-0.9-1.1-1.1-1.8c-0.2-0.7-0.3-1.5-0.3-2.4c0-0.8,0.1-1.6,0.3-2.3c0.2-0.7,0.5-1.3,0.9-1.7
						c0.4-0.5,1-0.9,1.6-1.1c0.6-0.3,1.4-0.4,2.3-0.4c1.6,0,2.8,0.5,3.6,1.4c0.8,0.9,1.2,2.2,1.2,4v1c0,0.2-0.1,0.2-0.2,0.2H98.2z
						 M102.1,43.2c0-0.7-0.2-1.2-0.5-1.6c-0.3-0.4-0.8-0.6-1.4-0.6c-0.7,0-1.1,0.2-1.5,0.6c-0.3,0.4-0.5,0.9-0.5,1.6H102.1z"/>
					<path fill="#FFFFFF" d="M109.6,45.2c0,0.3,0.1,0.6,0.2,0.9c0.1,0.3,0.2,0.5,0.4,0.7c0.2,0.2,0.6,0.4,1,0.5
						c0.4,0.1,1,0.2,1.6,0.2h3.1v1.9c-0.5,0.1-1.1,0.2-1.8,0.3c-0.7,0.1-1.4,0.1-2.1,0.1c-1,0-1.8-0.1-2.5-0.4
						c-0.7-0.2-1.2-0.6-1.7-1c-0.5-0.5-0.9-1.1-1.1-1.8c-0.2-0.7-0.3-1.5-0.3-2.4c0-0.8,0.1-1.6,0.3-2.3c0.2-0.7,0.5-1.3,0.9-1.7
						c0.4-0.5,1-0.9,1.6-1.1c0.6-0.3,1.4-0.4,2.3-0.4c1.6,0,2.8,0.5,3.6,1.4c0.8,0.9,1.2,2.2,1.2,4v1c0,0.2-0.1,0.2-0.2,0.2H109.6z
						 M113.5,43.2c0-0.7-0.2-1.2-0.5-1.6c-0.3-0.4-0.8-0.6-1.4-0.6c-0.7,0-1.1,0.2-1.5,0.6c-0.3,0.4-0.5,0.9-0.5,1.6H113.5z"/>
					<path fill="#FFFFFF" d="M127.9,47.5h1.3v1.9c-0.2,0-0.4,0.1-0.7,0.1c-0.2,0-0.5,0.1-0.7,0.1c-0.2,0-0.5,0-0.7,0
						c-0.2,0-0.4,0-0.5,0c-0.5,0-0.8-0.1-1.1-0.2c-0.3-0.1-0.4-0.3-0.5-0.6c-0.4,0.3-0.8,0.5-1.3,0.7c-0.5,0.2-1,0.3-1.6,0.3
						c-0.6,0-1.1-0.1-1.6-0.3c-0.5-0.2-0.9-0.5-1.3-1c-0.4-0.4-0.7-1-0.9-1.7c-0.2-0.7-0.3-1.6-0.3-2.6c0-0.8,0.1-1.6,0.3-2.3
						c0.2-0.7,0.5-1.3,0.8-1.7c0.4-0.5,0.8-0.8,1.3-1.1c0.5-0.3,1.1-0.4,1.8-0.4c0.5,0,0.9,0.1,1.4,0.2c0.4,0.1,0.9,0.3,1.3,0.5
						v-3.4h-1.4v-1.9c0.2,0,0.4-0.1,0.7-0.1c0.2,0,0.5,0,0.7-0.1c0.2,0,0.5,0,0.7-0.1c0.2,0,0.4,0,0.6,0c0.7,0,1.2,0.1,1.4,0.4
						c0.2,0.3,0.4,0.7,0.4,1.2V47.5z M124.9,41.3c-0.3,0-0.5-0.1-0.8-0.1c-0.3,0-0.5-0.1-0.8-0.1c-0.7,0-1.3,0.2-1.7,0.7
						c-0.4,0.5-0.6,1.3-0.6,2.5c0,1.2,0.2,2,0.5,2.4c0.4,0.4,0.9,0.7,1.5,0.7c0.3,0,0.6,0,0.9-0.1c0.3,0,0.6-0.1,0.8-0.2V41.3z"/>
					<path fill="#FFFFFF" d="M130.1,41v-1.9c0.4-0.1,0.9-0.1,1.4-0.1c0.5,0,0.9-0.1,1.2-0.1c0.7,0,1.1,0.1,1.4,0.4
						c0.2,0.3,0.4,0.7,0.4,1.2v5.3c0,0.5,0.1,0.8,0.3,1.1c0.1,0.1,0.3,0.2,0.6,0.3c0.2,0,0.5,0.1,0.8,0.1c0.3,0,0.6,0,1-0.1
						c0.4,0,0.7-0.1,1-0.2v-6h-1.3v-2h4.3v10.9c0,0.8-0.1,1.5-0.3,2.1c-0.2,0.6-0.5,1.1-0.8,1.5c-0.8,0.8-2,1.2-3.8,1.2
						c-0.5,0-1,0-1.6-0.1c-0.6-0.1-1.1-0.1-1.6-0.2v-1.9h2.3c1,0,1.7-0.2,2.1-0.5c0.4-0.4,0.6-1,0.6-1.9v-1.2
						c-0.5,0.3-1,0.6-1.6,0.7c-0.6,0.2-1.2,0.3-1.8,0.3c-0.5,0-1-0.1-1.4-0.3c-0.4-0.2-0.7-0.4-1-0.7c-0.3-0.3-0.5-0.7-0.6-1.1
						c-0.1-0.4-0.2-0.9-0.2-1.5V41H130.1z"/>
					<path fill="#FFFFFF" d="M148.4,49.6v-2.1h1.5V37h-1.5v-2.1h5.9c1.4,0,2.6,0.1,3.5,0.4c1,0.2,1.7,0.7,2.3,1.3
						c0.6,0.6,1,1.3,1.3,2.2c0.3,0.9,0.4,2,0.4,3.4c0,1.3-0.1,2.5-0.4,3.4c-0.3,0.9-0.7,1.7-1.3,2.3c-0.5,0.6-1.3,1-2.1,1.2
						c-0.9,0.3-2,0.4-3.3,0.4H148.4z M153.1,47.4h1.5c1.5,0,2.6-0.4,3.2-1.3c0.3-0.4,0.5-1,0.6-1.6c0.1-0.6,0.2-1.4,0.2-2.3
						c0-1-0.1-1.9-0.2-2.6c-0.2-0.7-0.4-1.2-0.8-1.6c-0.3-0.4-0.8-0.6-1.3-0.8c-0.5-0.1-1.2-0.2-2-0.2h-1.1V47.4z"/>
					<path fill="#FFFFFF" d="M172.9,49.6c-0.5,0-0.9-0.1-1.2-0.2c-0.3-0.1-0.4-0.4-0.5-0.7c-0.5,0.3-1,0.6-1.6,0.8
						c-0.6,0.2-1.2,0.3-1.9,0.3c-0.5,0-1-0.1-1.4-0.3c-0.4-0.2-0.8-0.4-1-0.7c-0.3-0.3-0.5-0.7-0.6-1.1c-0.1-0.4-0.2-0.9-0.2-1.5V41
						h-1.3v-1.9c0.4-0.1,0.9-0.1,1.4-0.1c0.5,0,0.9-0.1,1.2-0.1c0.7,0,1.1,0.1,1.4,0.4c0.2,0.3,0.4,0.7,0.4,1.2v5.3
						c0,0.5,0.1,0.8,0.3,1.1c0.1,0.1,0.3,0.2,0.6,0.3c0.2,0,0.5,0.1,0.8,0.1c0.3,0,0.6,0,1-0.1c0.4,0,0.7-0.1,1-0.2v-6h-1.3v-2h4.3
						v8.5h1.3v1.9c-0.2,0-0.4,0.1-0.7,0.1c-0.2,0-0.5,0.1-0.7,0.1c-0.2,0-0.5,0-0.7,0C173.2,49.6,173.1,49.6,172.9,49.6z
						 M166.8,35.9l3.5-3.2c0.4-0.4,0.8-0.4,1.1,0l1.1,1.5l-4.5,3L166.8,35.9z"/>
					<path fill="#FFFFFF" d="M187.2,44.3c0,0.8-0.1,1.6-0.3,2.3c-0.2,0.7-0.5,1.3-1,1.7c-0.4,0.5-1,0.9-1.7,1.1
						c-0.7,0.3-1.4,0.4-2.4,0.4c-0.9,0-1.7-0.1-2.4-0.4c-0.7-0.3-1.2-0.6-1.7-1.1c-0.4-0.5-0.8-1.1-1-1.7c-0.2-0.7-0.3-1.5-0.3-2.3
						c0-0.8,0.1-1.6,0.3-2.3c0.2-0.7,0.5-1.3,1-1.7c0.4-0.5,1-0.9,1.7-1.1c0.7-0.3,1.4-0.4,2.4-0.4c0.9,0,1.7,0.1,2.4,0.4
						c0.7,0.3,1.2,0.6,1.7,1.1c0.4,0.5,0.8,1.1,1,1.7C187.1,42.7,187.2,43.5,187.2,44.3z M184.1,44.3c0-1.1-0.2-1.9-0.5-2.4
						c-0.3-0.5-0.9-0.8-1.7-0.8c-0.8,0-1.3,0.3-1.7,0.8c-0.3,0.5-0.5,1.3-0.5,2.4c0,1.1,0.2,1.9,0.5,2.4c0.3,0.5,0.9,0.8,1.7,0.8
						c0.8,0,1.3-0.3,1.7-0.8C183.9,46.2,184.1,45.4,184.1,44.3z"/>
					<path fill="#FFFFFF" d="M200,47.4v2.1h-6.2v-2.1h1.5V37h-1.5v-2.1h6.2c1.2,0,2.1,0.1,2.9,0.2c0.8,0.2,1.4,0.4,1.9,0.9
						c0.4,0.3,0.7,0.8,0.9,1.3c0.2,0.5,0.3,1.2,0.3,2c0,0.7-0.1,1.4-0.2,2c-0.2,0.6-0.4,1.1-0.8,1.5c-0.4,0.4-0.9,0.8-1.5,1
						c-0.6,0.2-1.4,0.4-2.4,0.4c-0.2,0-0.4,0-0.7,0c-0.2,0-0.5,0-0.7-0.1c-0.3,0-0.5-0.1-0.7-0.1c-0.2,0-0.4-0.1-0.5-0.1v3.5H200z
						 M198.5,42h1.9c0.5,0,0.8,0,1.1-0.1c0.3-0.1,0.5-0.2,0.7-0.4c0.2-0.2,0.4-0.5,0.5-0.8c0.1-0.3,0.2-0.8,0.2-1.3
						c0-0.9-0.2-1.5-0.6-1.8c-0.4-0.4-1.1-0.5-2.1-0.5h-1.7V42z"/>
					<path fill="#FFFFFF" d="M211.2,49.6h-3V36.1h-1.4v-1.9c0.2,0,0.4-0.1,0.7-0.1c0.2,0,0.5,0,0.7-0.1c0.2,0,0.5,0,0.7-0.1
						c0.2,0,0.4,0,0.6,0c0.7,0,1.2,0.1,1.4,0.4c0.2,0.2,0.4,0.7,0.4,1.2V49.6z"/>
					<path fill="#FFFFFF" d="M222.7,49.6c-0.5,0-0.9-0.1-1.2-0.2c-0.3-0.1-0.4-0.4-0.5-0.7c-0.5,0.3-1,0.6-1.6,0.8
						c-0.6,0.2-1.2,0.3-1.9,0.3c-0.5,0-1-0.1-1.4-0.3c-0.4-0.2-0.7-0.4-1-0.7c-0.3-0.3-0.5-0.7-0.6-1.1c-0.1-0.4-0.2-0.9-0.2-1.5V41
						h-1.3v-1.9c0.4-0.1,0.9-0.1,1.4-0.1c0.5,0,0.9-0.1,1.2-0.1c0.7,0,1.1,0.1,1.4,0.4c0.2,0.3,0.4,0.7,0.4,1.2v5.3
						c0,0.5,0.1,0.8,0.3,1.1c0.1,0.1,0.3,0.2,0.6,0.3c0.2,0,0.5,0.1,0.8,0.1c0.3,0,0.7,0,1-0.1c0.4,0,0.7-0.1,1-0.2v-6h-1.3v-2h4.3
						v8.5h1.3v1.9c-0.2,0-0.4,0.1-0.7,0.1c-0.2,0-0.5,0.1-0.7,0.1c-0.2,0-0.5,0-0.7,0C223,49.6,222.8,49.6,222.7,49.6z"/>
					<path fill="#FFFFFF" d="M229.1,46.3c0,0.1,0.1,0.3,0.1,0.4c0,0.1,0.1,0.3,0.1,0.4c0,0.2,0.1,0.3,0.1,0.5
						c0.6,0.1,1.2,0.1,1.8,0.1c0.7,0,1.3-0.1,1.6-0.2c0.3-0.2,0.5-0.4,0.5-0.8c0-0.3-0.1-0.5-0.3-0.7c-0.2-0.1-0.5-0.2-1-0.3
						l-1.7-0.3c-0.7-0.1-1.2-0.3-1.7-0.4c-0.4-0.2-0.7-0.4-1-0.6c-0.5-0.5-0.8-1.2-0.8-2.1c0-0.5,0.1-1,0.3-1.4
						c0.2-0.4,0.4-0.7,0.7-1c0.4-0.4,1-0.7,1.6-0.8c0.7-0.2,1.4-0.2,2.2-0.2c0.6,0,1.2,0,1.9,0.1c0.6,0.1,1.1,0.2,1.5,0.3
						c0.2,0.1,0.3,0.1,0.4,0.2c0.1,0.1,0.1,0.2,0.1,0.4v2.6h-2.1c-0.1-0.2-0.2-0.4-0.2-0.7c-0.1-0.3-0.1-0.5-0.1-0.7
						c-0.2,0-0.5,0-0.8-0.1c-0.3,0-0.6,0-0.9,0c-1.2,0-1.8,0.3-1.8,1c0,0.3,0.1,0.5,0.3,0.7c0.2,0.2,0.6,0.3,1.1,0.4l1.6,0.3
						c0.7,0.1,1.2,0.3,1.6,0.4c0.4,0.2,0.7,0.4,1,0.6c0.5,0.5,0.8,1.2,0.8,2.1c0,1.1-0.4,2-1.2,2.6c-0.8,0.6-2,0.9-3.6,0.9
						c-0.9,0-1.7,0-2.3-0.1c-0.7-0.1-1.2-0.2-1.5-0.3c-0.2-0.1-0.3-0.2-0.4-0.3c0-0.1-0.1-0.2-0.1-0.4v-2.6H229.1z"/>
				</g>
			</g>
		</g>
		
			<line fill="none" stroke="#00577E" stroke-width="1.1718" stroke-linecap="round" stroke-linejoin="round" stroke-miterlimit="10" x1="332.9" y1="154" x2="47.7" y2="154"/>
		
			<line fill="none" stroke="#00577E" stroke-width="1.1718" stroke-linecap="round" stroke-linejoin="round" stroke-miterlimit="10" x1="332.9" y1="228.3" x2="47.7" y2="228.3"/>
		
			<path fill="none" stroke="#00577E" stroke-width="2.3436" stroke-linecap="round" stroke-linejoin="round" stroke-miterlimit="10" d="
			M94.9,291.9l-27.4-28c0,0-2.1-4.6,0.4-8.6l7.7-8l10.8,10.5l-5.6,6.1l15.4,15.9l6.8-5.5l10.1,10.3l-8.8,8.5c0,0-2,1.1-3.8,0.5"/>
		
			<path fill="none" stroke="#00577E" stroke-width="2.3436" stroke-linecap="round" stroke-linejoin="round" stroke-miterlimit="10" d="
			M103.1,185.3l-0.4,21.1c0,0-1.9,9.6-12.2,9.6c-10.3,0-13.2-9.6-13.2-9.6v-21.1c0,0,1-5.4,5.8-5.4c4.8,0,15.3,0,15.3,0
			S103.1,180.8,103.1,185.3z"/>
		
			<line fill="none" stroke="#00577E" stroke-width="2.3436" stroke-linecap="round" stroke-linejoin="round" stroke-miterlimit="10" x1="103" y1="191.5" x2="82.2" y2="191.5"/>
		
			<line fill="none" stroke="#00577E" stroke-width="2.3436" stroke-linecap="round" stroke-linejoin="round" stroke-miterlimit="10" x1="90.2" y1="191.1" x2="90.2" y2="180.8"/>
		
			<path fill="none" stroke="#00577E" stroke-width="2.3436" stroke-linecap="round" stroke-linejoin="round" stroke-miterlimit="10" d="
			M90.2,174.2c0,0,0.5-7.7-8-7.7c-6.9,0-5.8,6.3-9.1,9c-3.5,2.8-7.1,2.6-8.1,2.3"/>
		<g>
			<path fill="#00577E" d="M136.4,185.5H135v-2.1h6v2.1h-1.4v10.2h1.4v2.1h-6v-2.1h1.4V185.5z"/>
			<path fill="#00577E" d="M154.3,195.9v1.9c-0.8,0.1-1.9,0.2-2.5,0.2c-1.3,0-1.7-0.5-1.7-1.6v-5.2c0-0.4-0.1-0.8-0.3-1
				c-0.3-0.3-0.7-0.3-1.3-0.3c-0.6,0-1.4,0.1-2,0.2v7.9h-2.9v-8.4H142v-1.8c0.8-0.1,1.9-0.2,2.6-0.2c1,0,1.5,0.3,1.7,0.9
				c0.9-0.7,2.2-1.1,3.5-1.1c1.1,0,1.9,0.4,2.4,1c0.5,0.6,0.8,1.5,0.8,2.5v5.2H154.3z"/>
			<path fill="#00577E" d="M154.2,187.8l1.7-0.3v-2.3c0.9-0.3,2-0.4,2.9-0.4v2.7h2.4v2h-2.4v4.8c0,1.2,0.1,1.6,1.5,1.6h1.5v1.9
				c-0.7,0.2-1.9,0.3-2.8,0.3c-2.3,0-3.1-1.1-3.1-3.4v-5.2h-1.7V187.8z"/>
			<path fill="#00577E" d="M166.1,195.2c0.5,0.4,1.2,0.7,2.6,0.7h3.1v1.9c-1,0.2-2.5,0.4-3.8,0.4c-1.9,0-3.2-0.5-4.1-1.3
				c-1-1-1.4-2.4-1.4-4.1c0-3.2,1.6-5.5,5-5.5c3.1,0,4.7,1.8,4.7,5.2v0.9c0,0.2-0.1,0.2-0.2,0.2h-6.5
				C165.5,194.2,165.7,194.8,166.1,195.2z M169.3,191.7c-0.1-1.3-0.7-2.1-1.9-2.1c-1.3,0-1.9,0.8-1.9,2.1H169.3z"/>
			<path fill="#00577E" d="M179.9,187.2c0.4,0,0.6,0,0.6,0.3v2.3h-1.1c-0.8,0-1.4,0.1-2.1,0.2v7.8h-2.9v-8.4h-1.5v-1.8
				c0.8-0.1,1.9-0.2,2.6-0.2c1,0,1.5,0.2,1.7,0.9C178,187.7,178.9,187.2,179.9,187.2z"/>
			<path fill="#00577E" d="M192.8,195.9v1.9c-0.8,0.1-1.9,0.2-2.5,0.2c-1.3,0-1.7-0.5-1.7-1.6v-5.2c0-0.4-0.1-0.8-0.3-1
				c-0.3-0.3-0.7-0.3-1.3-0.3c-0.6,0-1.4,0.1-2,0.2v7.9H182v-8.4h-1.5v-1.8c0.8-0.1,1.9-0.2,2.6-0.2c1,0,1.5,0.3,1.7,0.9
				c0.9-0.7,2.2-1.1,3.5-1.1c1.1,0,1.9,0.4,2.4,1c0.5,0.6,0.8,1.5,0.8,2.5v5.2H192.8z"/>
			<path fill="#00577E" d="M197,195.2c0.5,0.4,1.2,0.7,2.6,0.7h3.1v1.9c-1,0.2-2.5,0.4-3.8,0.4c-1.9,0-3.2-0.5-4.1-1.3
				c-1-1-1.4-2.4-1.4-4.1c0-3.2,1.6-5.5,5-5.5c3.1,0,4.7,1.8,4.7,5.2v0.9c0,0.2-0.1,0.2-0.2,0.2h-6.5
				C196.5,194.2,196.6,194.8,197,195.2z M200.2,191.7c-0.1-1.3-0.7-2.1-1.9-2.1c-1.3,0-1.9,0.8-1.9,2.1H200.2z"/>
			<path fill="#00577E" d="M203.4,187.8l1.7-0.3v-2.3c0.9-0.3,2-0.4,2.9-0.4v2.7h2.4v2h-2.4v4.8c0,1.2,0.1,1.6,1.5,1.6h1.5v1.9
				c-0.7,0.2-1.9,0.3-2.8,0.3c-2.3,0-3.1-1.1-3.1-3.4v-5.2h-1.7V187.8z"/>
			<path fill="#00577E" d="M222.4,188.6c2.5,0,4,1.5,4,4.5c0,3.1-1.7,5-5.1,5c-3.9,0-5.2-2.4-5.2-6.8v-0.4c0-5.5,2.1-7.8,6.2-7.8
				c1,0,2.2,0.2,2.9,0.4v2h-2.1c-1.4,0-2.4,0.2-3,0.7c-0.6,0.5-0.8,1.6-0.9,3C220.4,188.8,221.5,188.6,222.4,188.6z M219.2,191.9
				c0,2.8,0.4,3.9,2.2,3.9c1.3,0,2-0.9,2-2.6c0-1.7-0.6-2.3-2.3-2.3c-0.6,0-1.3,0.1-1.9,0.2V191.9z"/>
			<path fill="#00577E" d="M248.9,183.4v2.1h-1.4v10.2h1.4v2.1h-5.8v-2.1h1.4v-6.2l-3.1,5.1h-2c-0.4,0-0.5-0.1-0.7-0.4l-2.9-4.8v6.3
				h1.5v2.1h-5.5v-2.1h1.4v-10.2h-1.4v-2.1h2.6c0.8,0,1.1,0.2,1.4,0.8l4.6,7.8l4.5-7.8c0.4-0.6,0.6-0.8,1.5-0.8H248.9z"/>
			<path fill="#00577E" d="M253.9,188.1c1-0.6,2.1-0.9,3-0.9c2.7,0,3.7,2.3,3.7,5.4c0,4.1-1.7,5.5-4,5.5c-1.1,0-2.3-0.5-3.1-1.1
				c-0.1,0.3-0.3,0.6-0.5,0.8h-2.1v-13.2h-1.4v-1.8c0.8-0.1,2-0.2,2.6-0.2c1.3,0,1.7,0.5,1.7,1.6V188.1z M253.9,195.4
				c0.5,0.2,1.2,0.4,1.9,0.4c1.3,0,1.8-0.7,1.8-3.2c0-2.2-0.5-2.9-1.9-2.9c-0.5,0-1.3,0.1-1.8,0.3V195.4z"/>
			<path fill="#00577E" d="M285,185.5l-3.4,12.3H279c-0.9,0-1.1-0.2-1.2-0.8l-2-9.1l-2,9.9h-2.7c-0.9,0-1.1-0.2-1.2-0.8l-3.4-11.5
				h-1.4v-2.1h2.8c1.2,0,1.4,0.2,1.7,1.2l2.6,10l2-10.5c0.1-0.6,0.3-0.8,1-0.8h2.3l2.6,11.4l2.4-9.4h-1.2v-2.1h5.1v2.1H285z"/>
			<path fill="#00577E" d="M290.6,197.8h-2.9v-8.4h-1.4v-1.8c0.8-0.1,2-0.2,2.6-0.2c1.3,0,1.7,0.5,1.7,1.6V197.8z M290.6,184.4
				c0,1-0.5,1.4-1.5,1.4h-0.1c-1,0-1.5-0.4-1.5-1.4v-0.3c0-1,0.5-1.5,1.5-1.5h0.1c1,0,1.5,0.4,1.5,1.5V184.4z"/>
			<path fill="#00577E" d="M297.2,185.5v3.9h3.4c0.5,0,0.6,0,0.6,0.3v2h-4v4.1h1.7v2.1h-6.3v-2.1h1.4v-10.2h-1.4v-2.1H303
				c0.7,0,0.8,0,0.8,0.4v3.7h-2c-0.2-0.4-0.4-1.5-0.4-2H297.2z"/>
			<path fill="#00577E" d="M308.5,197.8h-2.9v-8.4h-1.4v-1.8c0.8-0.1,2-0.2,2.6-0.2c1.3,0,1.7,0.5,1.7,1.6V197.8z M308.5,184.4
				c0,1-0.5,1.4-1.5,1.4h-0.1c-1,0-1.5-0.4-1.5-1.4v-0.3c0-1,0.5-1.5,1.5-1.5h0.1c1,0,1.5,0.4,1.5,1.5V184.4z"/>
		</g>
		<g>
			<path fill="#00577E" d="M140.5,119c-3.8,0-5.7-2.3-5.7-6.7s1.9-6.7,5.7-6.7c3.8,0,5.7,2.4,5.7,6.7S144.3,119,140.5,119z
				 M140.5,107.9c-1.9,0-2.7,1.4-2.7,4.5s0.8,4.5,2.7,4.5c1.9,0,2.8-1.4,2.8-4.5S142.5,107.9,140.5,107.9z"/>
			<path fill="#00577E" d="M157.9,117v1.7c-0.7,0.1-1.7,0.2-2.3,0.2c-1.2,0-1.5-0.4-1.5-1.4v-4.7c0-0.4-0.1-0.7-0.3-0.9
				c-0.2-0.2-0.7-0.3-1.2-0.3c-0.6,0-1.3,0.1-1.8,0.2v7h-2.6v-7.5h-1.3v-1.6c0.7-0.1,1.7-0.2,2.4-0.2c0.9,0,1.4,0.2,1.5,0.8
				c0.8-0.6,2-1,3.1-1c0.9,0,1.7,0.3,2.2,0.9c0.5,0.5,0.7,1.3,0.7,2.2v4.6H157.9z"/>
			<path fill="#00577E" d="M173.1,107.8l-3.6,11h-2.1c-0.7,0-0.9-0.2-1.1-0.7l-3.6-10.3h-1.3v-1.9h2.3c1.1,0,1.4,0.2,1.7,1.1
				l2.8,8.8l2.5-8h-1.1v-1.9h4.6v1.9H173.1z"/>
			<path fill="#00577E" d="M178.2,118.8h-2.6v-7.5h-1.2v-1.6c0.7-0.1,1.8-0.2,2.3-0.2c1.2,0,1.5,0.4,1.5,1.4V118.8z M178.2,106.7
				c0,0.9-0.5,1.3-1.4,1.3h-0.1c-0.9,0-1.4-0.4-1.4-1.3v-0.2c0-0.9,0.5-1.3,1.4-1.3h0.1c0.9,0,1.4,0.4,1.4,1.3V106.7z"/>
			<path fill="#00577E" d="M188.4,117h1.2v1.6c-0.7,0.1-1.7,0.2-2.3,0.2c-0.8,0-1.2-0.2-1.4-0.7c-0.6,0.5-1.5,0.8-2.5,0.8
				c-2,0-3.7-1.3-3.7-4.9c0-3,1.4-4.8,3.7-4.8c0.8,0,1.6,0.3,2.3,0.6v-3h-1.2v-1.6c0.7-0.1,1.8-0.2,2.3-0.2c1.2,0,1.5,0.4,1.5,1.4
				V117z M185.7,111.6c-0.5-0.1-0.9-0.2-1.4-0.2c-1.3,0-1.9,0.8-1.9,2.8c0,2.1,0.7,2.7,1.8,2.7c0.5,0,1.1-0.1,1.5-0.2V111.6z"/>
			<path fill="#00577E" d="M193.4,116.4c0.4,0.4,1.1,0.6,2.3,0.6h2.7v1.7c-0.9,0.2-2.2,0.4-3.4,0.4c-1.7,0-2.9-0.5-3.7-1.2
				c-0.9-0.9-1.2-2.2-1.2-3.7c0-2.9,1.4-4.9,4.5-4.9c2.8,0,4.2,1.6,4.2,4.7v0.8c0,0.2-0.1,0.2-0.2,0.2h-5.8
				C192.9,115.5,193.1,116.1,193.4,116.4z M196.3,113.2c-0.1-1.2-0.6-1.9-1.7-1.9c-1.1,0-1.7,0.7-1.7,1.9H196.3z"/>
			<path fill="#00577E" d="M204.4,119c-3.2,0-4.7-1.9-4.7-4.9c0-3,1.5-4.9,4.7-4.9c3.2,0,4.7,1.9,4.7,4.9
				C209,117.1,207.5,119,204.4,119z M204.4,111.3c-1.4,0-1.9,0.9-1.9,2.8s0.5,2.8,1.9,2.8c1.4,0,1.9-0.9,1.9-2.8
				S205.7,111.3,204.4,111.3z"/>
			<path fill="#00577E" d="M213.9,118.8v-1.9h1.3v-9.2h-1.3v-1.9h5.4v1.9H218v9.2h3.7c0-0.5,0.2-1.5,0.4-1.8h1.8v3.4
				c0,0.3-0.1,0.3-0.7,0.3H213.9z"/>
			<path fill="#00577E" d="M228.3,118.8h-2.6v-7.5h-1.2v-1.6c0.7-0.1,1.8-0.2,2.3-0.2c1.2,0,1.5,0.4,1.5,1.4V118.8z M228.3,106.7
				c0,0.9-0.5,1.3-1.4,1.3h-0.1c-0.9,0-1.4-0.4-1.4-1.3v-0.2c0-0.9,0.5-1.3,1.4-1.3h0.1c0.9,0,1.4,0.4,1.4,1.3V106.7z"/>
			<path fill="#00577E" d="M229.2,109.8l1.6-0.2v-2c0.8-0.2,1.8-0.4,2.6-0.4v2.4h2.2v1.8h-2.2v4.3c0,1,0.1,1.4,1.3,1.4h1.3v1.7
				c-0.6,0.2-1.7,0.3-2.5,0.3c-2,0-2.8-1-2.8-3.1v-4.7h-1.6V109.8z"/>
			<path fill="#00577E" d="M239.8,116.4c0.4,0.4,1.1,0.6,2.3,0.6h2.7v1.7c-0.9,0.2-2.2,0.4-3.4,0.4c-1.7,0-2.9-0.5-3.7-1.2
				c-0.9-0.9-1.2-2.2-1.2-3.7c0-2.9,1.4-4.9,4.5-4.9c2.8,0,4.2,1.6,4.2,4.7v0.8c0,0.2-0.1,0.2-0.2,0.2h-5.8
				C239.3,115.5,239.4,116.1,239.8,116.4z M242.6,113.2c-0.1-1.2-0.6-1.9-1.7-1.9c-1.1,0-1.7,0.7-1.7,1.9H242.6z"/>
			<path fill="#00577E" d="M257.9,117v1.7c-0.9,0.2-2.1,0.4-3.1,0.4c-1.7,0-2.8-0.5-3.6-1.2c-0.9-0.8-1.3-2.1-1.3-3.6
				c0-3.2,1.8-4.9,4.8-4.9c0.9,0,2.2,0.2,2.8,0.4c0.5,0.2,0.5,0.3,0.5,0.7v2.4h-2c0,0-0.2-0.8-0.3-1.4c-0.3,0-0.7-0.1-1-0.1
				c-1.7,0-2.2,1-2.2,2.8c0,1,0.2,1.7,0.6,2.1c0.4,0.5,1.1,0.8,2.4,0.8H257.9z"/>
			<path fill="#00577E" d="M263.5,119c-3.2,0-4.7-1.9-4.7-4.9c0-3,1.5-4.9,4.7-4.9c3.2,0,4.7,1.9,4.7,4.9
				C268.2,117.1,266.7,119,263.5,119z M263.5,111.3c-1.4,0-1.9,0.9-1.9,2.8s0.5,2.8,1.9,2.8c1.4,0,1.9-0.9,1.9-2.8
				S264.9,111.3,263.5,111.3z"/>
			<path fill="#00577E" d="M279.7,117v1.7c-0.7,0.1-1.7,0.2-2.3,0.2c-1.2,0-1.5-0.4-1.5-1.4v-4.7c0-0.4-0.1-0.7-0.3-0.9
				c-0.2-0.2-0.7-0.3-1.2-0.3c-0.6,0-1.3,0.1-1.8,0.2v7H270v-7.5h-1.3v-1.6c0.7-0.1,1.7-0.2,2.4-0.2c0.9,0,1.4,0.2,1.5,0.8
				c0.8-0.6,2-1,3.1-1c0.9,0,1.7,0.3,2.2,0.9c0.5,0.5,0.7,1.3,0.7,2.2v4.6H279.7z"/>
			<path fill="#00577E" d="M141.1,126.3c2.4,0,3.3,2.1,3.3,4.8c0,3.6-1.5,5-3.6,5c-0.8,0-1.8-0.3-2.5-0.8v4.7h-2.6v-11.7h-1.3v-1.7
				c0.7-0.1,1.7-0.2,2.4-0.2c0.9,0,1.4,0.2,1.5,0.8C139.2,126.7,140.2,126.3,141.1,126.3z M138.4,133.7c0.5,0.2,1.1,0.3,1.7,0.3
				c1.1,0,1.6-0.6,1.6-2.9c0-2-0.5-2.6-1.7-2.6c-0.5,0-1.1,0.1-1.6,0.3V133.7z"/>
			<path fill="#00577E" d="M148.5,133.5c0.4,0.4,1.1,0.6,2.3,0.6h2.7v1.7c-0.9,0.2-2.2,0.4-3.4,0.4c-1.7,0-2.9-0.5-3.7-1.2
				c-0.9-0.9-1.2-2.2-1.2-3.7c0-2.9,1.4-4.9,4.5-4.9c2.8,0,4.2,1.6,4.2,4.7v0.8c0,0.2-0.1,0.2-0.2,0.2H148
				C148,132.6,148.2,133.1,148.5,133.5z M151.4,130.3c-0.1-1.2-0.6-1.9-1.7-1.9c-1.1,0-1.7,0.7-1.7,1.9H151.4z"/>
			<path fill="#00577E" d="M158.2,135.8h-2.6V124h-1.2v-1.6c0.7-0.1,1.8-0.2,2.3-0.2c1.2,0,1.5,0.4,1.5,1.4V135.8z"/>
			<path fill="#00577E" d="M159.3,123.8l3.1-2.8c0.4-0.3,0.7-0.3,0.9,0l1,1.3l-4,2.7L159.3,123.8z M163.2,135.8h-2.6v-7.5h-1.2v-1.6
				c0.7-0.1,1.8-0.2,2.3-0.2c1.2,0,1.5,0.4,1.5,1.4V135.8z"/>
			<path fill="#00577E" d="M172.7,134.1v1.7c-0.9,0.2-2.1,0.4-3.1,0.4c-1.7,0-2.8-0.5-3.6-1.2c-0.9-0.8-1.3-2.1-1.3-3.6
				c0-3.2,1.8-4.9,4.8-4.9c0.9,0,2.2,0.2,2.8,0.4c0.5,0.2,0.5,0.3,0.5,0.7v2.4h-2c0,0-0.2-0.8-0.3-1.4c-0.3,0-0.7-0.1-1-0.1
				c-1.7,0-2.2,1-2.2,2.8c0,1,0.2,1.7,0.6,2.1c0.4,0.5,1.1,0.8,2.4,0.8H172.7z"/>
			<path fill="#00577E" d="M180.5,135.1c-0.8,0.6-2,1-3.1,1c-0.9,0-1.7-0.3-2.1-0.9c-0.5-0.5-0.7-1.3-0.7-2.2v-4.6h-1.2v-1.7
				c0.7-0.1,1.7-0.2,2.3-0.2c1.2,0,1.5,0.4,1.5,1.4v4.7c0,0.4,0.1,0.7,0.3,0.9c0.2,0.2,0.7,0.3,1.2,0.3c0.5,0,1.2-0.1,1.8-0.2v-5.3
				h-1.1v-1.8h3.7v7.5h1.2v1.6c-0.7,0.1-1.7,0.2-2.3,0.2C181,135.9,180.6,135.7,180.5,135.1z"/>
			<path fill="#00577E" d="M188.1,135.8h-2.6V124h-1.2v-1.6c0.7-0.1,1.8-0.2,2.3-0.2c1.2,0,1.5,0.4,1.5,1.4V135.8z"/>
			<path fill="#00577E" d="M195.3,135.3c-0.7,0.5-1.7,0.8-2.6,0.8c-0.9,0-1.8-0.3-2.3-0.8c-0.6-0.5-0.9-1.3-0.9-2.2
				c0-0.8,0.2-1.6,0.8-2.1c0.7-0.6,1.7-0.8,3.4-0.8h1.5v-0.6c0-0.4-0.1-0.7-0.3-0.9c-0.3-0.2-0.6-0.3-1.3-0.3h-3v-1.7
				c0.9-0.2,2.4-0.4,3.5-0.4c1.2,0,2.3,0.2,2.9,0.8c0.6,0.5,0.8,1.2,0.8,2.4v4.5h1.2v1.7c-0.7,0.1-1.7,0.2-2.2,0.2
				C196,135.9,195.5,135.7,195.3,135.3z M195.2,131.9h-1.5c-0.6,0-1,0.1-1.2,0.3c-0.2,0.2-0.3,0.5-0.3,0.8c0,0.7,0.4,1.1,1.4,1.1
				c0.5,0,1.2-0.1,1.7-0.2V131.9z"/>
			<path fill="#00577E" d="M201.9,132.9c0,0,0.2,0.6,0.3,1.2c0.5,0.1,1,0.1,1.6,0.1c1.3,0,1.8-0.3,1.8-0.9c0-0.5-0.3-0.7-1.1-0.8
				l-1.5-0.2c-1.2-0.2-1.9-0.5-2.3-0.9c-0.5-0.5-0.7-1.1-0.7-1.9c0-0.9,0.3-1.6,0.8-2.1c0.7-0.7,2-1,3.4-1c1.1,0,2.3,0.2,3,0.3
				c0.4,0.1,0.4,0.3,0.4,0.5v2.3h-1.8c-0.2-0.3-0.3-0.9-0.3-1.2c-0.4,0-1-0.1-1.4-0.1c-1.1,0-1.6,0.3-1.6,0.9c0,0.5,0.3,0.8,1.2,0.9
				l1.5,0.2c1.2,0.2,1.8,0.5,2.3,0.9c0.4,0.5,0.7,1.1,0.7,1.9c0,1.9-1.5,3-4.2,3c-1.6,0-2.8-0.1-3.4-0.3c-0.4-0.1-0.4-0.3-0.4-0.6
				v-2.2H201.9z"/>
			<path fill="#00577E" d="M212.4,128.3v-1.7c0.7-0.1,1.7-0.2,2.3-0.2c1.2,0,1.5,0.4,1.5,1.4v4.7c0,0.4,0.1,0.7,0.3,0.9
				c0.2,0.2,0.7,0.3,1.2,0.3c0.5,0,1.2-0.1,1.8-0.2v-5.3h-1.1v-1.8h3.7v9.5c0,1.4-0.3,2.4-1,3.1s-1.8,1.1-3.3,1.1
				c-0.8,0-2-0.1-2.8-0.3v-1.7h2.1c0.9,0,1.5-0.2,1.8-0.5c0.4-0.3,0.5-0.8,0.5-1.7v-1c-0.8,0.5-1.9,0.9-3,0.9
				c-0.9,0-1.7-0.3-2.1-0.9c-0.5-0.5-0.7-1.3-0.7-2.2v-4.6H212.4z"/>
			<path fill="#00577E" d="M229.6,132.9c0,0,0.2,0.6,0.3,1.2c0.5,0.1,1,0.1,1.6,0.1c1.3,0,1.8-0.3,1.8-0.9c0-0.5-0.3-0.7-1.1-0.8
				l-1.5-0.2c-1.2-0.2-1.9-0.5-2.3-0.9c-0.5-0.5-0.7-1.1-0.7-1.9c0-0.9,0.3-1.6,0.8-2.1c0.7-0.7,2-1,3.4-1c1.1,0,2.3,0.2,3,0.3
				c0.4,0.1,0.4,0.3,0.4,0.5v2.3h-1.8c-0.2-0.3-0.3-0.9-0.3-1.2c-0.4,0-1-0.1-1.4-0.1c-1.1,0-1.6,0.3-1.6,0.9c0,0.5,0.3,0.8,1.2,0.9
				l1.5,0.2c1.2,0.2,1.8,0.5,2.3,0.9c0.4,0.5,0.7,1.1,0.7,1.9c0,1.9-1.5,3-4.2,3c-1.6,0-2.8-0.1-3.4-0.3c-0.4-0.1-0.4-0.3-0.4-0.6
				v-2.2H229.6z"/>
			<path fill="#00577E" d="M239.9,133.5c0.4,0.4,1.1,0.6,2.3,0.6h2.7v1.7c-0.9,0.2-2.2,0.4-3.4,0.4c-1.7,0-2.9-0.5-3.7-1.2
				c-0.9-0.9-1.2-2.2-1.2-3.7c0-2.9,1.4-4.9,4.5-4.9c2.8,0,4.2,1.6,4.2,4.7v0.8c0,0.2-0.1,0.2-0.2,0.2h-5.8
				C239.4,132.6,239.6,133.1,239.9,133.5z M242.8,130.3c-0.1-1.2-0.6-1.9-1.7-1.9c-1.1,0-1.7,0.7-1.7,1.9H242.8z"/>
			<path fill="#00577E" d="M252.2,126.3c0.4,0,0.5,0,0.5,0.3v2.1h-1c-0.7,0-1.2,0.1-1.9,0.2v6.9h-2.6v-7.5H246v-1.6
				c0.7-0.1,1.7-0.2,2.3-0.2c0.9,0,1.4,0.2,1.5,0.8C250.6,126.7,251.4,126.3,252.2,126.3z"/>
			<path fill="#00577E" d="M256.8,135.8h-2.6v-7.5h-1.2v-1.6c0.7-0.1,1.8-0.2,2.3-0.2c1.2,0,1.5,0.4,1.5,1.4V135.8z M256.8,123.8
				c0,0.9-0.5,1.3-1.4,1.3h-0.1c-0.9,0-1.4-0.4-1.4-1.3v-0.2c0-0.9,0.5-1.3,1.4-1.3h0.1c0.9,0,1.4,0.4,1.4,1.3V123.8z"/>
			<path fill="#00577E" d="M261.5,133.5c0.4,0.4,1.1,0.6,2.3,0.6h2.7v1.7c-0.9,0.2-2.2,0.4-3.4,0.4c-1.7,0-2.9-0.5-3.7-1.2
				c-0.9-0.9-1.2-2.2-1.2-3.7c0-2.9,1.4-4.9,4.5-4.9c2.8,0,4.2,1.6,4.2,4.7v0.8c0,0.2-0.1,0.2-0.2,0.2h-5.8
				C261,132.6,261.1,133.1,261.5,133.5z M264.3,130.3c-0.1-1.2-0.6-1.9-1.7-1.9c-1.1,0-1.7,0.7-1.7,1.9H264.3z"/>
			<path fill="#00577E" d="M270.1,132.9c0,0,0.2,0.6,0.3,1.2c0.5,0.1,1,0.1,1.6,0.1c1.3,0,1.8-0.3,1.8-0.9c0-0.5-0.3-0.7-1.1-0.8
				l-1.5-0.2c-1.2-0.2-1.9-0.5-2.3-0.9c-0.5-0.5-0.7-1.1-0.7-1.9c0-0.9,0.3-1.6,0.8-2.1c0.7-0.7,2-1,3.4-1c1.1,0,2.3,0.2,3,0.3
				c0.4,0.1,0.4,0.3,0.4,0.5v2.3h-1.8c-0.2-0.3-0.3-0.9-0.3-1.2c-0.4,0-1-0.1-1.4-0.1c-1.1,0-1.6,0.3-1.6,0.9c0,0.5,0.3,0.8,1.2,0.9
				l1.5,0.2c1.2,0.2,1.8,0.5,2.3,0.9c0.4,0.5,0.7,1.1,0.7,1.9c0,1.9-1.5,3-4.2,3c-1.6,0-2.8-0.1-3.4-0.3c-0.4-0.1-0.4-0.3-0.4-0.6
				v-2.2H270.1z"/>
			<path fill="#00577E" d="M280.2,134.8c0,0.9-0.5,1.3-1.4,1.3h-0.1c-0.9,0-1.4-0.4-1.4-1.3v-0.2c0-0.9,0.5-1.3,1.4-1.3h0.1
				c0.9,0,1.4,0.4,1.4,1.3V134.8z"/>
		</g>
		<circle fill="none" stroke="#00577E" stroke-width="2.4" stroke-miterlimit="10" cx="89.5" cy="122.2" r="18"/>
		<polygon fill="none" stroke="#00577E" stroke-width="2.4" stroke-miterlimit="10" points="85.1,113.3 98.7,122.5 85.1,131.6 		"/>
		<g>
			<path fill="#00577E" d="M134.8,263.1v-1.4h1v-7h-1v-1.4h4.1v1.4h-1v7h2.8c0-0.4,0.1-1.2,0.3-1.4h1.4v2.6c0,0.2-0.1,0.3-0.6,0.3
				H134.8z"/>
			<path fill="#00577E" d="M145.6,263.1h-2v-9h-0.9v-1.3c0.6-0.1,1.4-0.1,1.8-0.1c0.9,0,1.2,0.3,1.2,1.1V263.1z"/>
			<path fill="#00577E" d="M151.2,262.7c-0.5,0.4-1.3,0.6-2,0.6c-0.7,0-1.4-0.2-1.8-0.6c-0.4-0.4-0.7-1-0.7-1.7
				c0-0.6,0.2-1.2,0.6-1.6c0.5-0.5,1.3-0.6,2.6-0.6h1.1v-0.4c0-0.3-0.1-0.5-0.2-0.7c-0.2-0.2-0.5-0.2-1-0.2h-2.3v-1.3
				c0.7-0.1,1.8-0.3,2.7-0.3c0.9,0,1.7,0.2,2.2,0.6c0.4,0.4,0.6,0.9,0.6,1.9v3.4h0.9v1.3c-0.5,0.1-1.3,0.1-1.7,0.1
				C151.6,263.2,151.3,263.1,151.2,262.7z M151.1,260.1h-1.2c-0.5,0-0.7,0.1-0.9,0.2c-0.1,0.1-0.2,0.3-0.2,0.6c0,0.5,0.3,0.8,1,0.8
				c0.4,0,0.9-0.1,1.3-0.2V260.1z"/>
			<path fill="#00577E" d="M157.1,256.6c0.6-0.5,1.4-0.7,2.2-0.7c0.7,0,1.3,0.2,1.7,0.8c0.7-0.5,1.6-0.8,2.5-0.8
				c0.6,0,1.2,0.2,1.6,0.7c0.4,0.4,0.5,1,0.5,1.7v3.5h0.9v1.3c-0.6,0.1-1.3,0.1-1.7,0.1c-0.9,0-1.2-0.3-1.2-1.1v-3.6
				c0-0.3-0.1-0.5-0.2-0.7c-0.2-0.2-0.5-0.2-0.9-0.2c-0.3,0-0.7,0-1.1,0.1c0,0.2,0,0.4,0,0.6v4.8h-2v-4.6c0-0.3-0.1-0.5-0.2-0.7
				c-0.2-0.2-0.5-0.2-0.9-0.2c-0.3,0-0.8,0-1.1,0.1v5.4h-2v-5.7h-1v-1.3c0.6-0.1,1.3-0.1,1.8-0.1C156.6,256,156.9,256.2,157.1,256.6
				z"/>
			<path fill="#00577E" d="M171.3,262.7c-0.5,0.4-1.3,0.6-2,0.6c-0.7,0-1.4-0.2-1.8-0.6c-0.4-0.4-0.7-1-0.7-1.7
				c0-0.6,0.2-1.2,0.6-1.6c0.5-0.5,1.3-0.6,2.6-0.6h1.1v-0.4c0-0.3-0.1-0.5-0.2-0.7c-0.2-0.2-0.5-0.2-1-0.2h-2.3v-1.3
				c0.7-0.1,1.8-0.3,2.7-0.3c0.9,0,1.7,0.2,2.2,0.6c0.4,0.4,0.6,0.9,0.6,1.9v3.4h0.9v1.3c-0.5,0.1-1.3,0.1-1.7,0.1
				C171.8,263.2,171.4,263.1,171.3,262.7z M171.2,260.1H170c-0.5,0-0.7,0.1-0.9,0.2c-0.1,0.1-0.2,0.3-0.2,0.6c0,0.5,0.3,0.8,1,0.8
				c0.4,0,0.9-0.1,1.3-0.2V260.1z"/>
			<path fill="#00577E" d="M181.1,261.8h0.9v1.3c-0.5,0.1-1.3,0.1-1.7,0.1c-0.6,0-0.9-0.1-1.1-0.5c-0.5,0.4-1.2,0.6-1.9,0.6
				c-1.6,0-2.8-1-2.8-3.8c0-2.3,1-3.7,2.8-3.7c0.6,0,1.2,0.2,1.8,0.5v-2.3h-0.9v-1.3c0.6-0.1,1.4-0.1,1.8-0.1c0.9,0,1.2,0.3,1.2,1.1
				V261.8z M179.1,257.6c-0.4-0.1-0.7-0.1-1.1-0.1c-1,0-1.5,0.6-1.5,2.2c0,1.6,0.5,2.1,1.4,2.1c0.4,0,0.8-0.1,1.2-0.2V257.6z"/>
			<path fill="#00577E" d="M187,262.7c-0.5,0.4-1.3,0.6-2,0.6c-0.7,0-1.4-0.2-1.8-0.6c-0.4-0.4-0.7-1-0.7-1.7c0-0.6,0.2-1.2,0.6-1.6
				c0.5-0.5,1.3-0.6,2.6-0.6h1.1v-0.4c0-0.3-0.1-0.5-0.2-0.7c-0.2-0.2-0.5-0.2-1-0.2h-2.3v-1.3c0.7-0.1,1.8-0.3,2.7-0.3
				c0.9,0,1.7,0.2,2.2,0.6c0.4,0.4,0.6,0.9,0.6,1.9v3.4h0.9v1.3c-0.5,0.1-1.3,0.1-1.7,0.1C187.4,263.2,187.1,263.1,187,262.7z
				 M186.9,260.1h-1.2c-0.5,0-0.7,0.1-0.9,0.2c-0.1,0.1-0.2,0.3-0.2,0.6c0,0.5,0.3,0.8,1,0.8c0.4,0,0.9-0.1,1.3-0.2V260.1z"/>
			<path fill="#00577E" d="M191.9,260.9c0,0,0.2,0.5,0.2,0.9c0.4,0.1,0.8,0.1,1.2,0.1c1,0,1.4-0.2,1.4-0.7c0-0.4-0.2-0.5-0.9-0.6
				l-1.2-0.2c-0.9-0.1-1.4-0.4-1.8-0.7c-0.3-0.3-0.5-0.8-0.5-1.4c0-0.7,0.2-1.2,0.6-1.6c0.6-0.5,1.5-0.7,2.6-0.7
				c0.8,0,1.8,0.1,2.3,0.3c0.3,0.1,0.3,0.2,0.3,0.4v1.8h-1.4c-0.1-0.2-0.2-0.7-0.2-0.9c-0.3,0-0.7,0-1.1,0c-0.8,0-1.2,0.2-1.2,0.7
				c0,0.4,0.2,0.6,0.9,0.7l1.1,0.2c0.9,0.1,1.4,0.4,1.8,0.7c0.3,0.3,0.5,0.8,0.5,1.4c0,1.5-1.1,2.3-3.2,2.3c-1.2,0-2.1-0.1-2.6-0.2
				c-0.3-0.1-0.3-0.2-0.3-0.5v-1.7H191.9z"/>
			<path fill="#00577E" d="M203,263.1h-2v-5.7h-0.9v-1.3c0.6-0.1,1.4-0.1,1.8-0.1c0.9,0,1.2,0.3,1.2,1.1V263.1z M203,253.9
				c0,0.7-0.4,1-1,1h-0.1c-0.7,0-1-0.3-1-1v-0.2c0-0.7,0.3-1,1-1h0.1c0.7,0,1,0.3,1,1V253.9z"/>
			<path fill="#00577E" d="M206.7,263.1h-2v-9h-0.9v-1.3c0.6-0.1,1.4-0.1,1.8-0.1c0.9,0,1.2,0.3,1.2,1.1V263.1z"/>
			<path fill="#00577E" d="M210.5,263.1h-2v-5.7h-0.9v-1.3c0.6-0.1,1.4-0.1,1.8-0.1c0.9,0,1.2,0.3,1.2,1.1V263.1z M210.5,253.9
				c0,0.7-0.4,1-1,1h-0.1c-0.7,0-1-0.3-1-1v-0.2c0-0.7,0.3-1,1-1h0.1c0.7,0,1,0.3,1,1V253.9z"/>
			<path fill="#00577E" d="M214.4,256.6c0.6-0.5,1.4-0.7,2.2-0.7c0.7,0,1.3,0.2,1.7,0.8c0.7-0.5,1.6-0.8,2.5-0.8
				c0.6,0,1.2,0.2,1.6,0.7c0.4,0.4,0.5,1,0.5,1.7v3.5h0.9v1.3c-0.6,0.1-1.3,0.1-1.7,0.1c-0.9,0-1.2-0.3-1.2-1.1v-3.6
				c0-0.3-0.1-0.5-0.2-0.7c-0.2-0.2-0.5-0.2-0.9-0.2c-0.3,0-0.7,0-1.1,0.1c0,0.2,0,0.4,0,0.6v4.8h-2v-4.6c0-0.3-0.1-0.5-0.2-0.7
				c-0.2-0.2-0.5-0.2-0.9-0.2c-0.3,0-0.8,0-1.1,0.1v5.4h-2v-5.7h-1v-1.3c0.6-0.1,1.3-0.1,1.8-0.1C213.9,256,214.2,256.2,214.4,256.6
				z"/>
			<path fill="#00577E" d="M226.9,263.1h-2v-5.7h-0.9v-1.3c0.6-0.1,1.4-0.1,1.8-0.1c0.9,0,1.2,0.3,1.2,1.1V263.1z M226.9,253.9
				c0,0.7-0.4,1-1,1h-0.1c-0.7,0-1-0.3-1-1v-0.2c0-0.7,0.3-1,1-1h0.1c0.7,0,1,0.3,1,1V253.9z"/>
			<path fill="#00577E" d="M227.5,256.3l1.2-0.2v-1.6c0.6-0.2,1.4-0.3,2-0.3v1.9h1.7v1.3h-1.7v3.3c0,0.8,0.1,1.1,1,1.1h1v1.3
				c-0.4,0.1-1.3,0.2-1.9,0.2c-1.5,0-2.1-0.8-2.1-2.3v-3.6h-1.2V256.3z"/>
			<path fill="#00577E" d="M237.6,262.7c-0.5,0.4-1.3,0.6-2,0.6c-0.7,0-1.4-0.2-1.8-0.6c-0.4-0.4-0.7-1-0.7-1.7
				c0-0.6,0.2-1.2,0.6-1.6c0.5-0.5,1.3-0.6,2.6-0.6h1.1v-0.4c0-0.3-0.1-0.5-0.2-0.7c-0.2-0.2-0.5-0.2-1-0.2H234v-1.3
				c0.7-0.1,1.8-0.3,2.7-0.3c0.9,0,1.7,0.2,2.2,0.6c0.4,0.4,0.6,0.9,0.6,1.9v3.4h0.9v1.3c-0.5,0.1-1.3,0.1-1.7,0.1
				C238.1,263.2,237.7,263.1,237.6,262.7z M237.5,260.1h-1.2c-0.5,0-0.7,0.1-0.9,0.2c-0.1,0.1-0.2,0.3-0.2,0.6c0,0.5,0.3,0.8,1,0.8
				c0.4,0,0.9-0.1,1.3-0.2V260.1z"/>
			<path fill="#00577E" d="M247.4,261.8h0.9v1.3c-0.5,0.1-1.3,0.1-1.7,0.1c-0.6,0-0.9-0.1-1.1-0.5c-0.5,0.4-1.2,0.6-1.9,0.6
				c-1.6,0-2.8-1-2.8-3.8c0-2.3,1-3.7,2.8-3.7c0.6,0,1.2,0.2,1.8,0.5v-2.3h-0.9v-1.3c0.6-0.1,1.4-0.1,1.8-0.1c0.9,0,1.2,0.3,1.2,1.1
				V261.8z M245.4,257.6c-0.4-0.1-0.7-0.1-1.1-0.1c-1,0-1.5,0.6-1.5,2.2c0,1.6,0.5,2.1,1.4,2.1c0.4,0,0.8-0.1,1.2-0.2V257.6z"/>
			<path fill="#00577E" d="M253.3,262.7c-0.5,0.4-1.3,0.6-2,0.6c-0.7,0-1.4-0.2-1.8-0.6c-0.4-0.4-0.7-1-0.7-1.7
				c0-0.6,0.2-1.2,0.6-1.6c0.5-0.5,1.3-0.6,2.6-0.6h1.1v-0.4c0-0.3-0.1-0.5-0.2-0.7c-0.2-0.2-0.5-0.2-1-0.2h-2.3v-1.3
				c0.7-0.1,1.8-0.3,2.7-0.3c0.9,0,1.7,0.2,2.2,0.6c0.4,0.4,0.6,0.9,0.6,1.9v3.4h0.9v1.3c-0.5,0.1-1.3,0.1-1.7,0.1
				C253.7,263.2,253.4,263.1,253.3,262.7z M253.2,260.1H252c-0.5,0-0.7,0.1-0.9,0.2c-0.1,0.1-0.2,0.3-0.2,0.6c0,0.5,0.3,0.8,1,0.8
				c0.4,0,0.9-0.1,1.3-0.2V260.1z"/>
			<path fill="#00577E" d="M258.2,260.9c0,0,0.2,0.5,0.2,0.9c0.4,0.1,0.8,0.1,1.2,0.1c1,0,1.4-0.2,1.4-0.7c0-0.4-0.2-0.5-0.9-0.6
				l-1.2-0.2c-0.9-0.1-1.4-0.4-1.8-0.7c-0.3-0.3-0.5-0.8-0.5-1.4c0-0.7,0.2-1.2,0.6-1.6c0.6-0.5,1.5-0.7,2.6-0.7
				c0.8,0,1.8,0.1,2.3,0.3c0.3,0.1,0.3,0.2,0.3,0.4v1.8h-1.4c-0.1-0.2-0.2-0.7-0.2-0.9c-0.3,0-0.7,0-1.1,0c-0.8,0-1.2,0.2-1.2,0.7
				c0,0.4,0.2,0.6,0.9,0.7l1.1,0.2c0.9,0.1,1.4,0.4,1.8,0.7c0.3,0.3,0.5,0.8,0.5,1.4c0,1.5-1.1,2.3-3.2,2.3c-1.2,0-2.1-0.1-2.6-0.2
				c-0.3-0.1-0.3-0.2-0.3-0.5v-1.7H258.2z"/>
			<path fill="#00577E" d="M139.1,275.6c-0.5,0.4-1.3,0.6-2,0.6c-0.7,0-1.4-0.2-1.8-0.6c-0.4-0.4-0.7-1-0.7-1.7
				c0-0.6,0.2-1.2,0.6-1.6c0.5-0.5,1.3-0.6,2.6-0.6h1.1v-0.4c0-0.3-0.1-0.5-0.2-0.7c-0.2-0.2-0.5-0.2-1-0.2h-2.3V269
				c0.7-0.1,1.8-0.3,2.7-0.3c0.9,0,1.7,0.2,2.2,0.6c0.4,0.4,0.6,0.9,0.6,1.9v3.4h0.9v1.3c-0.5,0.1-1.3,0.1-1.7,0.1
				C139.6,276,139.3,275.9,139.1,275.6z M139,272.9h-1.2c-0.5,0-0.7,0.1-0.9,0.2c-0.1,0.1-0.2,0.3-0.2,0.6c0,0.5,0.3,0.8,1,0.8
				c0.4,0,0.9-0.1,1.3-0.2V272.9z"/>
			<path fill="#00577E" d="M144.7,269.1l1.2-0.2v-1.6c0.6-0.2,1.4-0.3,2-0.3v1.9h1.7v1.3h-1.7v3.3c0,0.8,0.1,1.1,1,1.1h1v1.3
				c-0.4,0.1-1.3,0.2-1.9,0.2c-1.5,0-2.1-0.8-2.1-2.3v-3.6h-1.2V269.1z"/>
			<path fill="#00577E" d="M152.8,274.2c0.3,0.3,0.8,0.5,1.8,0.5h2.1v1.3c-0.7,0.1-1.7,0.3-2.6,0.3c-1.3,0-2.2-0.3-2.8-0.9
				c-0.7-0.7-0.9-1.7-0.9-2.8c0-2.2,1.1-3.7,3.4-3.7c2.1,0,3.2,1.3,3.2,3.6v0.6c0,0.1,0,0.2-0.1,0.2h-4.4
				C152.5,273.5,152.6,273.9,152.8,274.2z M155,271.7c0-0.9-0.4-1.5-1.3-1.5c-0.9,0-1.3,0.6-1.3,1.5H155z"/>
			<path fill="#00577E" d="M160.2,276h-2v-9h-0.9v-1.3c0.6-0.1,1.4-0.1,1.8-0.1c0.9,0,1.2,0.3,1.2,1.1V276z"/>
			<path fill="#00577E" d="M163.8,274.2c0.3,0.3,0.8,0.5,1.8,0.5h2.1v1.3c-0.7,0.1-1.7,0.3-2.6,0.3c-1.3,0-2.2-0.3-2.8-0.9
				c-0.7-0.7-0.9-1.7-0.9-2.8c0-2.2,1.1-3.7,3.4-3.7c2.1,0,3.2,1.3,3.2,3.6v0.6c0,0.1,0,0.2-0.1,0.2h-4.4
				C163.4,273.5,163.5,273.9,163.8,274.2z M163,266.8l2.3-2.2c0.3-0.2,0.5-0.3,0.7,0l0.7,1l-3,2L163,266.8z M166,271.7
				c0-0.9-0.4-1.5-1.3-1.5c-0.9,0-1.3,0.6-1.3,1.5H166z"/>
			<path fill="#00577E" d="M173.1,268.9v1.3h-1.7v5.7h-2v-5.7h-1.2v-1.2l1.2-0.2V268c0-0.9,0.2-1.5,0.6-1.9c0.4-0.4,1-0.6,1.9-0.6
				c0.5,0,1.2,0.1,1.6,0.1v1.4h-0.7c-0.7,0-1,0-1.2,0.2c-0.2,0.1-0.2,0.4-0.2,0.9v0.9H173.1z"/>
			<path fill="#00577E" d="M176.9,276.2c-2.4,0-3.5-1.5-3.5-3.7s1.1-3.7,3.5-3.7c2.4,0,3.6,1.5,3.6,3.7S179.3,276.2,176.9,276.2z
				 M176.9,270.3c-1,0-1.5,0.7-1.5,2.2s0.4,2.2,1.5,2.2c1,0,1.5-0.7,1.5-2.2S177.9,270.3,176.9,270.3z"/>
			<path fill="#00577E" d="M189.2,274.6v1.3c-0.5,0.1-1.3,0.1-1.7,0.1c-0.9,0-1.2-0.3-1.2-1.1v-3.6c0-0.3-0.1-0.5-0.2-0.7
				c-0.2-0.2-0.5-0.2-0.9-0.2c-0.4,0-1,0.1-1.4,0.1v5.4h-2v-5.7h-1V269c0.5-0.1,1.3-0.1,1.8-0.1c0.7,0,1,0.2,1.2,0.6
				c0.6-0.4,1.5-0.7,2.4-0.7c0.7,0,1.3,0.2,1.7,0.7c0.3,0.4,0.5,1,0.5,1.7v3.5H189.2z"/>
			<path fill="#00577E" d="M193.1,276.2c-2.4,0-3.5-1.5-3.5-3.7s1.1-3.7,3.5-3.7c2.4,0,3.6,1.5,3.6,3.7S195.6,276.2,193.1,276.2z
				 M193.1,270.3c-1,0-1.5,0.7-1.5,2.2s0.4,2.2,1.5,2.2c1,0,1.5-0.7,1.5-2.2S194.2,270.3,193.1,270.3z"/>
			<path fill="#00577E" d="M199.1,273.7c0,0,0.2,0.5,0.2,0.9c0.4,0.1,0.8,0.1,1.2,0.1c1,0,1.4-0.2,1.4-0.7c0-0.4-0.2-0.5-0.9-0.6
				l-1.2-0.2c-0.9-0.1-1.4-0.4-1.8-0.7c-0.3-0.3-0.5-0.8-0.5-1.4c0-0.7,0.2-1.2,0.6-1.6c0.6-0.5,1.5-0.7,2.6-0.7
				c0.8,0,1.8,0.1,2.3,0.3c0.3,0.1,0.3,0.2,0.3,0.4v1.8H202c-0.1-0.2-0.2-0.7-0.2-0.9c-0.3,0-0.7,0-1.1,0c-0.8,0-1.2,0.2-1.2,0.7
				c0,0.4,0.2,0.6,0.9,0.7l1.1,0.2c0.9,0.1,1.4,0.4,1.8,0.7c0.3,0.3,0.5,0.8,0.5,1.4c0,1.5-1.1,2.3-3.2,2.3c-1.2,0-2.1-0.1-2.6-0.2
				c-0.3-0.1-0.3-0.2-0.3-0.5v-1.7H199.1z"/>
			<path fill="#00577E" d="M210.2,270.3v5.7h-2v-5.7H207V269l1.2-0.1v-1.1c0-0.9,0.2-1.5,0.6-1.9c0.4-0.4,1-0.6,1.9-0.6
				c0.5,0,1.1,0,1.5,0.1v1.4h-0.6c-0.7,0-0.9,0-1.2,0.2c-0.2,0.1-0.2,0.4-0.2,0.9v1h3.9c0.9,0,1,0.3,1,1v6h-2v-5.7H210.2z
				 M215.3,266.6c0,0.7-0.4,1-1,1h-0.1c-0.7,0-1-0.3-1-1v-0.2c0-0.7,0.3-1,1-1h0.1c0.7,0,1,0.3,1,1V266.6z"/>
			<path fill="#00577E" d="M219.1,276.8c0,0.9-0.2,1.5-0.6,1.9c-0.4,0.4-0.9,0.6-1.6,0.6c-0.5,0-1.1-0.1-1.6-0.2v-1.3h0.7
				c0.5,0,0.8-0.1,0.9-0.2c0.2-0.2,0.2-0.4,0.2-0.9v-6.4h-0.9V269c0.6-0.1,1.4-0.1,1.8-0.1c0.9,0,1.2,0.3,1.2,1.1V276.8z
				 M219.1,266.7c0,0.7-0.4,1-1,1h-0.1c-0.7,0-1-0.3-1-1v-0.2c0-0.7,0.3-1,1-1h0.1c0.7,0,1,0.3,1,1V266.7z"/>
			<path fill="#00577E" d="M223.7,276.2c-2.4,0-3.5-1.5-3.5-3.7s1.1-3.7,3.5-3.7c2.4,0,3.6,1.5,3.6,3.7S226.2,276.2,223.7,276.2z
				 M223.7,270.3c-1,0-1.5,0.7-1.5,2.2s0.4,2.2,1.5,2.2c1,0,1.5-0.7,1.5-2.2S224.8,270.3,223.7,270.3z"/>
			<path fill="#00577E" d="M229.7,273.7c0,0,0.2,0.5,0.2,0.9c0.4,0.1,0.8,0.1,1.2,0.1c1,0,1.4-0.2,1.4-0.7c0-0.4-0.2-0.5-0.9-0.6
				l-1.2-0.2c-0.9-0.1-1.4-0.4-1.8-0.7c-0.3-0.3-0.5-0.8-0.5-1.4c0-0.7,0.2-1.2,0.6-1.6c0.6-0.5,1.5-0.7,2.6-0.7
				c0.8,0,1.8,0.1,2.3,0.3c0.3,0.1,0.3,0.2,0.3,0.4v1.8h-1.4c-0.1-0.2-0.2-0.7-0.2-0.9c-0.3,0-0.7,0-1.1,0c-0.8,0-1.2,0.2-1.2,0.7
				c0,0.4,0.2,0.6,0.9,0.7l1.1,0.2c0.9,0.1,1.4,0.4,1.8,0.7c0.3,0.3,0.5,0.8,0.5,1.4c0,1.5-1.1,2.3-3.2,2.3c-1.2,0-2.1-0.1-2.6-0.2
				c-0.3-0.1-0.3-0.2-0.3-0.5v-1.7H229.7z"/>
			<path fill="#00577E" d="M237.7,270.3V269c0.6-0.1,1.3-0.1,1.7-0.1c0.9,0,1.2,0.3,1.2,1.1v3.6c0,0.3,0.1,0.5,0.2,0.7
				c0.2,0.2,0.5,0.2,0.9,0.2c0.4,0,0.9-0.1,1.3-0.1v-4h-0.8v-1.3h2.8v7.3c0,1.1-0.2,1.9-0.7,2.4c-0.5,0.5-1.3,0.8-2.5,0.8
				c-0.6,0-1.5-0.1-2.1-0.2v-1.3h1.6c0.7,0,1.1-0.1,1.4-0.4s0.4-0.6,0.4-1.3v-0.8c-0.6,0.4-1.5,0.7-2.3,0.7c-0.7,0-1.3-0.2-1.6-0.7
				c-0.4-0.4-0.5-1-0.5-1.7v-3.5H237.7z"/>
			<path fill="#00577E" d="M255.2,274.6v1.3c-0.7,0.1-1.6,0.3-2.4,0.3c-1.3,0-2.2-0.3-2.8-0.9c-0.7-0.6-1-1.6-1-2.7
				c0-2.4,1.4-3.8,3.7-3.8c0.7,0,1.7,0.1,2.2,0.3c0.4,0.1,0.4,0.3,0.4,0.5v1.8h-1.5c0,0-0.2-0.6-0.2-1c-0.2,0-0.5,0-0.7,0
				c-1.3,0-1.7,0.7-1.7,2.2c0,0.8,0.2,1.3,0.4,1.6c0.3,0.4,0.9,0.6,1.8,0.6H255.2z"/>
			<path fill="#00577E" d="M258.5,274.2c0.3,0.3,0.8,0.5,1.8,0.5h2.1v1.3c-0.7,0.1-1.7,0.3-2.6,0.3c-1.3,0-2.2-0.3-2.8-0.9
				c-0.7-0.7-0.9-1.7-0.9-2.8c0-2.2,1.1-3.7,3.4-3.7c2.1,0,3.2,1.3,3.2,3.6v0.6c0,0.1,0,0.2-0.1,0.2H258
				C258.1,273.5,258.2,273.9,258.5,274.2z M260.6,271.7c0-0.9-0.4-1.5-1.3-1.5c-0.9,0-1.3,0.6-1.3,1.5H260.6z"/>
			<path fill="#00577E" d="M265.8,276h-2v-9h-0.9v-1.3c0.6-0.1,1.4-0.1,1.8-0.1c0.9,0,1.2,0.3,1.2,1.1V276z"/>
			<path fill="#00577E" d="M272.1,275.4c-0.6,0.5-1.5,0.7-2.3,0.7c-0.7,0-1.3-0.2-1.6-0.7c-0.4-0.4-0.5-1-0.5-1.7v-3.5h-0.9V269
				c0.6-0.1,1.3-0.1,1.7-0.1c0.9,0,1.2,0.3,1.2,1.1v3.6c0,0.3,0.1,0.5,0.2,0.7c0.2,0.2,0.5,0.2,0.9,0.2c0.4,0,0.9-0.1,1.3-0.1v-4
				h-0.8v-1.3h2.8v5.7h0.9v1.3c-0.6,0.1-1.3,0.1-1.7,0.1C272.5,276,272.2,275.8,272.1,275.4z"/>
			<path fill="#00577E" d="M277.9,276h-2v-9h-0.9v-1.3c0.6-0.1,1.4-0.1,1.8-0.1c0.9,0,1.2,0.3,1.2,1.1V276z"/>
			<path fill="#00577E" d="M283.4,275.6c-0.5,0.4-1.3,0.6-2,0.6c-0.7,0-1.4-0.2-1.8-0.6c-0.4-0.4-0.7-1-0.7-1.7
				c0-0.6,0.2-1.2,0.6-1.6c0.5-0.5,1.3-0.6,2.6-0.6h1.1v-0.4c0-0.3-0.1-0.5-0.2-0.7c-0.2-0.2-0.5-0.2-1-0.2h-2.3V269
				c0.7-0.1,1.8-0.3,2.7-0.3c0.9,0,1.7,0.2,2.2,0.6c0.4,0.4,0.6,0.9,0.6,1.9v3.4h0.9v1.3c-0.5,0.1-1.3,0.1-1.7,0.1
				C283.9,276,283.6,275.9,283.4,275.6z M283.3,272.9h-1.2c-0.5,0-0.7,0.1-0.9,0.2c-0.1,0.1-0.2,0.3-0.2,0.6c0,0.5,0.3,0.8,1,0.8
				c0.4,0,0.9-0.1,1.3-0.2V272.9z"/>
			<path fill="#00577E" d="M291.2,268.7c0.3,0,0.4,0,0.4,0.2v1.6h-0.8c-0.5,0-0.9,0-1.4,0.2v5.3h-2v-5.7h-1V269
				c0.5-0.1,1.3-0.1,1.8-0.1c0.7,0,1,0.2,1.2,0.6C289.9,269,290.5,268.7,291.2,268.7z"/>
			<path fill="#00577E" d="M294.4,274.2c0.3,0.3,0.8,0.5,1.8,0.5h2.1v1.3c-0.7,0.1-1.7,0.3-2.6,0.3c-1.3,0-2.2-0.3-2.8-0.9
				c-0.7-0.7-0.9-1.7-0.9-2.8c0-2.2,1.1-3.7,3.4-3.7c2.1,0,3.2,1.3,3.2,3.6v0.6c0,0.1,0,0.2-0.1,0.2h-4.4
				C294,273.5,294.1,273.9,294.4,274.2z M296.5,271.7c0-0.9-0.4-1.5-1.3-1.5c-0.9,0-1.3,0.6-1.3,1.5H296.5z"/>
			<path fill="#00577E" d="M301,273.7c0,0,0.2,0.5,0.2,0.9c0.4,0.1,0.8,0.1,1.2,0.1c1,0,1.4-0.2,1.4-0.7c0-0.4-0.2-0.5-0.9-0.6
				l-1.2-0.2c-0.9-0.1-1.4-0.4-1.8-0.7c-0.3-0.3-0.5-0.8-0.5-1.4c0-0.7,0.2-1.2,0.6-1.6c0.6-0.5,1.5-0.7,2.6-0.7
				c0.8,0,1.8,0.1,2.3,0.3c0.3,0.1,0.3,0.2,0.3,0.4v1.8h-1.4c-0.1-0.2-0.2-0.7-0.2-0.9c-0.3,0-0.7,0-1.1,0c-0.8,0-1.2,0.2-1.2,0.7
				c0,0.4,0.2,0.6,0.9,0.7l1.1,0.2c0.9,0.1,1.4,0.4,1.8,0.7c0.3,0.3,0.5,0.8,0.5,1.4c0,1.5-1.1,2.3-3.2,2.3c-1.2,0-2.1-0.1-2.6-0.2
				c-0.3-0.1-0.3-0.2-0.3-0.5v-1.7H301z"/>
			<path fill="#00577E" d="M141.2,287.4h0.9v1.3c-0.5,0.1-1.3,0.1-1.7,0.1c-0.6,0-0.9-0.1-1.1-0.5c-0.5,0.4-1.2,0.6-1.9,0.6
				c-1.6,0-2.8-1-2.8-3.8c0-2.3,1-3.7,2.8-3.7c0.6,0,1.2,0.2,1.8,0.5v-2.3h-0.9v-1.3c0.6-0.1,1.4-0.1,1.8-0.1c0.9,0,1.2,0.3,1.2,1.1
				V287.4z M139.2,283.3c-0.4-0.1-0.7-0.1-1.1-0.1c-1,0-1.5,0.6-1.5,2.2c0,1.6,0.5,2.1,1.4,2.1c0.4,0,0.8-0.1,1.2-0.2V283.3z"/>
			<path fill="#00577E" d="M145.1,287c0.3,0.3,0.8,0.5,1.8,0.5h2.1v1.3c-0.7,0.1-1.7,0.3-2.6,0.3c-1.3,0-2.2-0.3-2.8-0.9
				c-0.7-0.7-0.9-1.7-0.9-2.8c0-2.2,1.1-3.7,3.4-3.7c2.1,0,3.2,1.3,3.2,3.5v0.6c0,0.1,0,0.2-0.1,0.2h-4.4
				C144.7,286.3,144.8,286.7,145.1,287z M147.3,284.6c0-0.9-0.4-1.5-1.3-1.5c-0.9,0-1.3,0.6-1.3,1.5H147.3z"/>
			<path fill="#00577E" d="M152.3,281.9l1.2-0.2v-1.6c0.6-0.2,1.4-0.3,2-0.3v1.9h1.7v1.3h-1.7v3.3c0,0.8,0.1,1.1,1,1.1h1v1.3
				c-0.4,0.1-1.3,0.2-1.9,0.2c-1.5,0-2.1-0.8-2.1-2.3v-3.6h-1.2V281.9z"/>
			<path fill="#00577E" d="M161.5,289c-2.4,0-3.5-1.5-3.5-3.7s1.1-3.7,3.5-3.7c2.4,0,3.6,1.5,3.6,3.7S163.9,289,161.5,289z
				 M161.5,283.1c-1,0-1.5,0.7-1.5,2.2s0.4,2.2,1.5,2.2c1,0,1.5-0.7,1.5-2.2S162.5,283.1,161.5,283.1z"/>
			<path fill="#00577E" d="M172.3,287.4h0.9v1.3c-0.5,0.1-1.3,0.1-1.7,0.1c-0.6,0-0.9-0.1-1.1-0.5c-0.5,0.4-1.2,0.6-1.9,0.6
				c-1.6,0-2.8-1-2.8-3.8c0-2.3,1-3.7,2.8-3.7c0.6,0,1.2,0.2,1.8,0.5v-2.3h-0.9v-1.3c0.6-0.1,1.4-0.1,1.8-0.1c0.9,0,1.2,0.3,1.2,1.1
				V287.4z M170.3,283.3c-0.4-0.1-0.7-0.1-1.1-0.1c-1,0-1.5,0.6-1.5,2.2c0,1.6,0.5,2.1,1.4,2.1c0.4,0,0.8-0.1,1.2-0.2V283.3z"/>
			<path fill="#00577E" d="M177.2,289c-2.4,0-3.5-1.5-3.5-3.7s1.1-3.7,3.5-3.7c2.4,0,3.6,1.5,3.6,3.7S179.6,289,177.2,289z
				 M177.2,283.1c-1,0-1.5,0.7-1.5,2.2s0.4,2.2,1.5,2.2c1,0,1.5-0.7,1.5-2.2S178.2,283.1,177.2,283.1z"/>
			<path fill="#00577E" d="M186.7,287c0.3,0.3,0.8,0.5,1.8,0.5h2.1v1.3c-0.7,0.1-1.7,0.3-2.6,0.3c-1.3,0-2.2-0.3-2.8-0.9
				c-0.7-0.7-0.9-1.7-0.9-2.8c0-2.2,1.1-3.7,3.4-3.7c2.1,0,3.2,1.3,3.2,3.5v0.6c0,0.1,0,0.2-0.1,0.2h-4.4
				C186.3,286.3,186.5,286.7,186.7,287z M188.9,284.6c0-0.9-0.4-1.5-1.3-1.5c-0.9,0-1.3,0.6-1.3,1.5H188.9z"/>
			<path fill="#00577E" d="M194.1,288.8h-2v-9h-0.9v-1.3c0.6-0.1,1.4-0.1,1.8-0.1c0.9,0,1.2,0.3,1.2,1.1V288.8z"/>
			<path fill="#00577E" d="M202.9,281.5c1.8,0,2.5,1.6,2.5,3.7c0,2.8-1.1,3.8-2.7,3.8c-0.6,0-1.4-0.2-1.9-0.6v3.6h-2v-8.9h-1v-1.3
				c0.5-0.1,1.3-0.1,1.8-0.1c0.7,0,1,0.2,1.2,0.6C201.4,281.8,202.2,281.5,202.9,281.5z M200.8,287.1c0.3,0.1,0.8,0.2,1.3,0.2
				c0.9,0,1.2-0.5,1.2-2.2c0-1.5-0.3-2-1.3-2c-0.3,0-0.9,0.1-1.2,0.2V287.1z"/>
			<path fill="#00577E" d="M210.6,288.4c-0.5,0.4-1.3,0.6-2,0.6c-0.7,0-1.4-0.2-1.8-0.6c-0.4-0.4-0.7-1-0.7-1.7
				c0-0.6,0.2-1.2,0.6-1.6c0.5-0.5,1.3-0.6,2.6-0.6h1.1V284c0-0.3-0.1-0.5-0.2-0.7c-0.2-0.2-0.5-0.2-1-0.2h-2.3v-1.3
				c0.7-0.1,1.8-0.3,2.7-0.3c0.9,0,1.7,0.2,2.2,0.6c0.4,0.4,0.6,0.9,0.6,1.9v3.4h0.9v1.3c-0.5,0.1-1.3,0.1-1.7,0.1
				C211,288.8,210.7,288.7,210.6,288.4z M210.5,285.7h-1.2c-0.5,0-0.7,0.1-0.9,0.2c-0.1,0.1-0.2,0.3-0.2,0.6c0,0.5,0.3,0.8,1,0.8
				c0.4,0,0.9-0.1,1.3-0.2V285.7z"/>
			<path fill="#00577E" d="M213.6,279.6l2.3-2.2c0.3-0.2,0.5-0.3,0.7,0l0.7,1l-3,2L213.6,279.6z M216.6,288.8h-2v-5.7h-0.9v-1.3
				c0.6-0.1,1.4-0.1,1.8-0.1c0.9,0,1.2,0.3,1.2,1.1V288.8z"/>
			<path fill="#00577E" d="M219.4,286.6c0,0,0.2,0.5,0.2,0.9c0.4,0.1,0.8,0.1,1.2,0.1c1,0,1.4-0.2,1.4-0.7c0-0.4-0.2-0.5-0.9-0.6
				l-1.2-0.2c-0.9-0.1-1.4-0.4-1.8-0.7c-0.3-0.3-0.5-0.8-0.5-1.4c0-0.7,0.2-1.2,0.6-1.6c0.6-0.5,1.5-0.7,2.6-0.7
				c0.8,0,1.8,0.1,2.3,0.3c0.3,0.1,0.3,0.2,0.3,0.4v1.8h-1.4c-0.1-0.2-0.2-0.7-0.2-0.9c-0.3,0-0.7,0-1.1,0c-0.8,0-1.2,0.2-1.2,0.7
				c0,0.4,0.2,0.6,0.9,0.7l1.1,0.2c0.9,0.1,1.4,0.4,1.8,0.7c0.3,0.3,0.5,0.8,0.5,1.4c0,1.5-1.1,2.3-3.2,2.3c-1.2,0-2.1-0.1-2.6-0.2
				c-0.3-0.1-0.3-0.2-0.3-0.5v-1.7H219.4z"/>
			<path fill="#00577E" d="M227.2,288c0,0.7-0.4,1-1,1H226c-0.7,0-1-0.3-1-1v-0.2c0-0.7,0.4-1,1-1h0.1c0.7,0,1,0.3,1,1V288z"/>
		</g>
		<path fill="#79B943" d="M288.4,324.2c-23.3,0-42.2,19.2-42.2,42.8c0,9,2.8,17.7,8,25c11.7,18.4,32.5,40.3,32.7,40.5l1.6,1.7
			l1.6-1.7c0.9-1,23.2-24.4,33.8-42.2c4.4-6.9,6.8-15,6.8-23.3C330.6,343.4,311.7,324.2,288.4,324.2"/>
		<g>
			<g>
				<g>
					<path fill="#00577E" d="M38.5,371.5c0-1.8,0.3-3.3,0.8-4.6c0.5-1.3,1.3-2.5,2.3-3.5c2-2,5-3.2,9-3.6v-6.3h6v6.3
						c1.6,0.1,3.1,0.3,4.6,0.6c1.4,0.3,2.6,0.5,3.5,0.9c0.7,0.2,1.1,0.5,1.3,0.7c0.2,0.3,0.3,0.7,0.3,1.3v8.3h-6
						c-0.2-0.5-0.5-1.3-0.7-2.3c-0.2-1-0.4-1.9-0.4-2.7c-1.5-0.2-3.3-0.4-5.2-0.4c-1.2,0-2.3,0.1-3.3,0.3c-1,0.2-1.8,0.6-2.5,1.2
						c-0.8,0.7-1.2,1.7-1.2,3.1c0,1.4,0.4,2.4,1.3,3.2c0.9,0.7,2.4,1.4,4.6,2.1l4.6,1.4c2,0.6,3.7,1.3,5.1,2
						c1.4,0.7,2.5,1.6,3.5,2.6c1.6,1.9,2.4,4.4,2.4,7.5c0,1.7-0.3,3.3-0.8,4.8c-0.5,1.4-1.3,2.7-2.3,3.7c-1.9,2-4.8,3.2-8.6,3.8v7
						h-6v-6.9c-1.8-0.1-3.5-0.2-5.3-0.4c-1.7-0.2-3.1-0.5-4.3-0.7c-0.8-0.2-1.3-0.5-1.5-0.9c-0.2-0.4-0.3-0.9-0.3-1.5v-8.5h6.3
						c0.2,0.5,0.5,1.2,0.7,2.2c0.2,1,0.4,1.9,0.5,2.6c0.6,0.2,1.4,0.4,2.6,0.5c1.1,0.1,2.3,0.1,3.4,0.1c2.9,0,4.9-0.5,6.1-1.6
						c0.9-0.8,1.4-1.9,1.4-3.4c0-1.3-0.4-2.4-1.2-3.1c-0.8-0.7-2.1-1.4-3.9-1.9l-5.4-1.5c-1.8-0.6-3.4-1.1-4.8-1.8
						c-1.4-0.6-2.5-1.4-3.4-2.3c-0.9-0.9-1.6-2-2.1-3.4C38.7,374.9,38.5,373.3,38.5,371.5z"/>
				</g>
			</g>
			<g>
				<path fill="#00577E" d="M81,425v1.6h-4.6V425h1.1v-7.7h-1.1v-1.6h4.6c0.9,0,1.6,0.1,2.2,0.2c0.6,0.1,1,0.3,1.4,0.6
					c0.3,0.3,0.5,0.6,0.7,1c0.1,0.4,0.2,0.9,0.2,1.5c0,0.5-0.1,1-0.2,1.5c-0.1,0.4-0.3,0.8-0.6,1.1c-0.3,0.3-0.7,0.6-1.1,0.7
					c-0.5,0.2-1,0.3-1.7,0.3c-0.2,0-0.3,0-0.5,0c-0.2,0-0.4,0-0.5,0c-0.2,0-0.4,0-0.5-0.1c-0.2,0-0.3-0.1-0.4-0.1v2.6H81z
					 M79.9,420.9h1.4c0.3,0,0.6,0,0.8-0.1c0.2-0.1,0.4-0.2,0.5-0.3c0.1-0.2,0.3-0.4,0.3-0.6c0.1-0.3,0.1-0.6,0.1-0.9
					c0-0.6-0.1-1.1-0.4-1.4c-0.3-0.3-0.8-0.4-1.5-0.4h-1.2V420.9z"/>
				<path fill="#00577E" d="M89.5,419.4c0.3-0.3,0.6-0.5,1-0.6c0.3-0.2,0.7-0.2,1.1-0.2c0.2,0,0.3,0,0.3,0c0.1,0,0.1,0.1,0.1,0.2
					v1.8h-0.8c-0.3,0-0.6,0-0.8,0c-0.2,0-0.5,0.1-0.8,0.1v5.9h-2.2v-6.3h-1.1v-1.4c0.3,0,0.6-0.1,1-0.1c0.4,0,0.7,0,1,0
					c0.4,0,0.7,0,0.9,0.1C89.3,419,89.4,419.1,89.5,419.4z"/>
				<path fill="#00577E" d="M94.9,423.4c0,0.2,0.1,0.4,0.1,0.7c0.1,0.2,0.2,0.4,0.3,0.6c0.2,0.2,0.4,0.3,0.7,0.4
					c0.3,0.1,0.7,0.1,1.2,0.1h2.3v1.4c-0.4,0.1-0.8,0.1-1.3,0.2c-0.5,0.1-1,0.1-1.6,0.1c-0.7,0-1.3-0.1-1.8-0.3
					c-0.5-0.2-0.9-0.4-1.3-0.7c-0.4-0.4-0.6-0.8-0.8-1.4c-0.2-0.5-0.2-1.1-0.2-1.8c0-0.6,0.1-1.2,0.2-1.7c0.2-0.5,0.4-0.9,0.7-1.3
					c0.3-0.4,0.7-0.6,1.2-0.8c0.5-0.2,1-0.3,1.7-0.3c1.2,0,2.1,0.3,2.7,1c0.6,0.7,0.9,1.6,0.9,2.9v0.7c0,0.1-0.1,0.2-0.2,0.2H94.9z
					 M97.8,421.9c0-0.5-0.1-0.9-0.4-1.2c-0.2-0.3-0.6-0.4-1.1-0.4c-0.5,0-0.8,0.1-1.1,0.4c-0.2,0.3-0.4,0.7-0.4,1.2H97.8z"/>
				<path fill="#00577E" d="M107.9,425.1v1.4c-0.4,0.1-0.8,0.2-1.3,0.2c-0.5,0.1-0.9,0.1-1.4,0.1c-0.7,0-1.3-0.1-1.8-0.3
					c-0.5-0.2-0.9-0.4-1.2-0.8c-0.4-0.4-0.6-0.8-0.8-1.3c-0.2-0.5-0.3-1.1-0.3-1.7c0-1.4,0.4-2.4,1.1-3.1c0.7-0.7,1.7-1.1,3-1.1
					c0.2,0,0.4,0,0.6,0c0.2,0,0.4,0,0.7,0.1c0.2,0,0.4,0.1,0.6,0.1c0.2,0,0.4,0.1,0.5,0.1c0.2,0.1,0.3,0.1,0.4,0.2
					c0,0.1,0.1,0.2,0.1,0.3v2h-1.7c0-0.1-0.1-0.3-0.1-0.4c0-0.1-0.1-0.2-0.1-0.4c0-0.1,0-0.3-0.1-0.4c-0.1,0-0.3,0-0.4,0
					c-0.2,0-0.3,0-0.4,0c-0.7,0-1.2,0.2-1.5,0.6c-0.3,0.4-0.4,1-0.4,1.8c0,0.4,0,0.8,0.1,1.1c0.1,0.3,0.2,0.5,0.4,0.7
					c0.2,0.2,0.4,0.4,0.7,0.5c0.3,0.1,0.7,0.2,1.2,0.2H107.9z"/>
				<path fill="#00577E" d="M112.2,426.6H110v-6.3h-1v-1.4c0.2,0,0.3,0,0.5-0.1c0.2,0,0.4,0,0.5,0c0.2,0,0.3,0,0.5,0
					c0.2,0,0.3,0,0.4,0c0.5,0,0.9,0.1,1,0.3c0.2,0.2,0.3,0.5,0.3,0.9V426.6z M112.2,416.4c0,0.4-0.1,0.7-0.3,0.8
					c-0.2,0.2-0.5,0.2-0.9,0.2H111c-0.4,0-0.7-0.1-0.9-0.2c-0.2-0.2-0.3-0.4-0.3-0.8v-0.2c0-0.4,0.1-0.7,0.3-0.8
					c0.2-0.2,0.5-0.3,0.9-0.3h0.1c0.4,0,0.7,0.1,0.9,0.3c0.2,0.2,0.3,0.5,0.3,0.8V416.4z"/>
				<path fill="#00577E" d="M121.7,422.7c0,0.6-0.1,1.2-0.2,1.7c-0.2,0.5-0.4,0.9-0.7,1.3c-0.3,0.4-0.7,0.6-1.2,0.8
					c-0.5,0.2-1.1,0.3-1.7,0.3c-0.7,0-1.2-0.1-1.7-0.3c-0.5-0.2-0.9-0.5-1.2-0.8c-0.3-0.4-0.6-0.8-0.7-1.3c-0.2-0.5-0.2-1.1-0.2-1.7
					c0-0.6,0.1-1.2,0.2-1.7c0.2-0.5,0.4-0.9,0.7-1.3c0.3-0.4,0.7-0.6,1.2-0.8c0.5-0.2,1.1-0.3,1.7-0.3c0.7,0,1.2,0.1,1.7,0.3
					c0.5,0.2,0.9,0.5,1.2,0.8c0.3,0.4,0.6,0.8,0.7,1.3C121.6,421.5,121.7,422,121.7,422.7z M119.4,422.7c0-0.8-0.1-1.4-0.4-1.8
					c-0.2-0.4-0.7-0.6-1.2-0.6c-0.6,0-1,0.2-1.2,0.6c-0.3,0.4-0.4,1-0.4,1.8c0,0.8,0.1,1.4,0.4,1.8c0.2,0.4,0.7,0.6,1.2,0.6
					c0.6,0,1-0.2,1.2-0.6C119.2,424.1,119.4,423.5,119.4,422.7z"/>
				<path fill="#00577E" d="M130,417.3v2.9h2.5c0.2,0,0.3,0,0.4,0c0.1,0,0.1,0.1,0.1,0.2v1.5h-3v3.1h1.3v1.6h-4.7V425h1.1v-7.7h-1.1
					v-1.6h7.8c0.3,0,0.4,0,0.5,0c0.1,0,0.1,0.1,0.1,0.2v2.8h-1.5c0-0.1-0.1-0.2-0.1-0.3c0-0.1-0.1-0.3-0.1-0.4
					c0-0.1-0.1-0.3-0.1-0.4c0-0.1,0-0.3,0-0.4H130z"/>
				<path fill="#00577E" d="M139,426.6h-2.2v-6.3h-1v-1.4c0.2,0,0.3,0,0.5-0.1c0.2,0,0.4,0,0.5,0c0.2,0,0.3,0,0.5,0
					c0.2,0,0.3,0,0.4,0c0.5,0,0.9,0.1,1,0.3c0.2,0.2,0.3,0.5,0.3,0.9V426.6z M139,416.4c0,0.4-0.1,0.7-0.3,0.8
					c-0.2,0.2-0.5,0.2-0.9,0.2h-0.1c-0.4,0-0.7-0.1-0.9-0.2c-0.2-0.2-0.3-0.4-0.3-0.8v-0.2c0-0.4,0.1-0.7,0.3-0.8
					c0.2-0.2,0.5-0.3,0.9-0.3h0.1c0.4,0,0.7,0.1,0.9,0.3c0.2,0.2,0.3,0.5,0.3,0.8V416.4z"/>
				<path fill="#00577E" d="M149.6,425.1v1.4c-0.1,0-0.3,0-0.5,0.1c-0.2,0-0.3,0-0.5,0.1c-0.2,0-0.3,0-0.5,0c-0.2,0-0.3,0-0.4,0
					c-0.5,0-0.8-0.1-1-0.3c-0.2-0.2-0.3-0.5-0.3-0.9v-4c0-0.4-0.1-0.6-0.3-0.8c-0.1-0.1-0.2-0.2-0.4-0.2c-0.2,0-0.4,0-0.6,0
					c-0.2,0-0.5,0-0.8,0c-0.3,0-0.5,0.1-0.7,0.1v6h-2.2v-6.3h-1.1v-1.4c0.3,0,0.6-0.1,1-0.1c0.4,0,0.7,0,1,0c0.4,0,0.7,0.1,0.9,0.2
					c0.2,0.1,0.3,0.3,0.4,0.5c0.4-0.2,0.8-0.4,1.2-0.6c0.5-0.1,0.9-0.2,1.4-0.2c0.4,0,0.8,0.1,1.1,0.2c0.3,0.1,0.6,0.3,0.8,0.5
					c0.4,0.4,0.6,1.1,0.6,1.9v3.9H149.6z"/>
				<path fill="#00577E" d="M156.6,426.6c-0.3,0-0.6,0-0.8-0.1c-0.2-0.1-0.3-0.2-0.4-0.4c-0.3,0.2-0.7,0.4-1,0.5
					c-0.4,0.1-0.8,0.2-1.1,0.2c-0.4,0-0.8-0.1-1.1-0.2c-0.3-0.1-0.6-0.3-0.8-0.5c-0.5-0.5-0.7-1.1-0.7-1.9c0-0.3,0.1-0.7,0.2-1
					c0.1-0.3,0.3-0.6,0.5-0.8c0.3-0.3,0.6-0.5,1.1-0.6c0.5-0.1,1-0.2,1.8-0.2h1.3v-0.5c0-0.4-0.1-0.6-0.2-0.8
					c-0.1-0.1-0.3-0.2-0.4-0.2c-0.2,0-0.4,0-0.7,0h-2.5v-1.4c0.2,0,0.4-0.1,0.7-0.1c0.2,0,0.5-0.1,0.8-0.1c0.3,0,0.5,0,0.8-0.1
					c0.3,0,0.5,0,0.8,0c0.5,0,1,0.1,1.4,0.2c0.4,0.1,0.8,0.3,1.1,0.5c0.2,0.2,0.4,0.5,0.5,0.8c0.1,0.3,0.2,0.7,0.2,1.2v3.8h1v1.4
					c-0.1,0-0.3,0-0.5,0.1c-0.2,0-0.3,0-0.5,0.1s-0.3,0-0.5,0C156.9,426.6,156.7,426.6,156.6,426.6z M155.3,423.2H154
					c-0.5,0-0.8,0.1-1,0.3c-0.2,0.2-0.3,0.4-0.3,0.7c0,0.3,0.1,0.5,0.3,0.7c0.2,0.2,0.5,0.2,0.9,0.2c0.2,0,0.5,0,0.7-0.1
					c0.3,0,0.5-0.1,0.7-0.1V423.2z"/>
				<path fill="#00577E" d="M162.2,426.6h-2.2v-10h-1v-1.4c0.2,0,0.3,0,0.5-0.1c0.2,0,0.4,0,0.5,0c0.2,0,0.3,0,0.5,0
					c0.2,0,0.3,0,0.4,0c0.5,0,0.9,0.1,1,0.3c0.2,0.2,0.3,0.5,0.3,0.9V426.6z"/>
				<path fill="#00577E" d="M170.3,419.3c0.4-0.2,0.7-0.4,1.1-0.6c0.4-0.1,0.8-0.2,1.2-0.2c0.5,0,0.9,0.1,1.3,0.3
					c0.4,0.2,0.6,0.5,0.9,0.9c0.2,0.4,0.4,0.8,0.5,1.3c0.1,0.5,0.2,1,0.2,1.6c0,0.8-0.1,1.4-0.2,2c-0.1,0.5-0.4,1-0.6,1.3
					c-0.3,0.3-0.6,0.6-1,0.7c-0.4,0.1-0.8,0.2-1.2,0.2c-0.4,0-0.7-0.1-1.1-0.2c-0.4-0.1-0.7-0.3-1-0.5v4h-2.2v-9.9h-1.1v-1.4
					c0.3,0,0.6-0.1,1-0.1c0.4,0,0.7,0,1,0c0.4,0,0.7,0,0.9,0.1C170.1,419,170.3,419.1,170.3,419.3z M170.4,424.7
					c0.2,0.1,0.4,0.1,0.7,0.2c0.3,0,0.5,0.1,0.8,0.1c0.2,0,0.5,0,0.6-0.1c0.2-0.1,0.3-0.2,0.4-0.4c0.1-0.2,0.2-0.4,0.2-0.8
					c0.1-0.3,0.1-0.7,0.1-1.2c0-0.4,0-0.8-0.1-1c0-0.3-0.1-0.5-0.2-0.7c-0.1-0.2-0.3-0.3-0.4-0.4c-0.2-0.1-0.4-0.1-0.7-0.1
					c-0.2,0-0.4,0-0.7,0.1c-0.3,0-0.5,0.1-0.7,0.2V424.7z"/>
				<path fill="#00577E" d="M184.4,422.7c0,0.6-0.1,1.2-0.2,1.7c-0.2,0.5-0.4,0.9-0.7,1.3c-0.3,0.4-0.7,0.6-1.2,0.8
					c-0.5,0.2-1.1,0.3-1.7,0.3c-0.7,0-1.2-0.1-1.7-0.3c-0.5-0.2-0.9-0.5-1.2-0.8c-0.3-0.4-0.6-0.8-0.7-1.3c-0.2-0.5-0.2-1.1-0.2-1.7
					c0-0.6,0.1-1.2,0.2-1.7c0.2-0.5,0.4-0.9,0.7-1.3c0.3-0.4,0.7-0.6,1.2-0.8c0.5-0.2,1.1-0.3,1.7-0.3c0.7,0,1.3,0.1,1.7,0.3
					c0.5,0.2,0.9,0.5,1.2,0.8c0.3,0.4,0.6,0.8,0.7,1.3C184.3,421.5,184.4,422,184.4,422.7z M182.1,422.7c0-0.8-0.1-1.4-0.4-1.8
					c-0.2-0.4-0.7-0.6-1.3-0.6c-0.6,0-1,0.2-1.2,0.6c-0.2,0.4-0.4,1-0.4,1.8c0,0.8,0.1,1.4,0.4,1.8c0.3,0.4,0.7,0.6,1.2,0.6
					c0.6,0,1-0.2,1.3-0.6C182,424.1,182.1,423.5,182.1,422.7z"/>
				<path fill="#00577E" d="M188.5,419.4c0.3-0.3,0.6-0.5,1-0.6c0.3-0.2,0.7-0.2,1.1-0.2c0.2,0,0.3,0,0.3,0c0.1,0,0.1,0.1,0.1,0.2
					v1.8h-0.8c-0.3,0-0.6,0-0.8,0c-0.2,0-0.5,0.1-0.8,0.1v5.9h-2.2v-6.3h-1.1v-1.4c0.3,0,0.6-0.1,1-0.1c0.4,0,0.7,0,1,0
					c0.4,0,0.7,0,0.9,0.1C188.3,419,188.4,419.1,188.5,419.4z"/>
				<path fill="#00577E" d="M197,418.7c0.4,0,0.7,0,0.9,0.1c0.2,0.1,0.3,0.3,0.4,0.5c0.7-0.5,1.5-0.8,2.4-0.8c0.4,0,0.7,0.1,1.1,0.2
					c0.3,0.1,0.6,0.4,0.8,0.6c0.4-0.3,0.8-0.5,1.3-0.6c0.5-0.1,0.9-0.2,1.4-0.2c0.4,0,0.7,0.1,1,0.2c0.3,0.1,0.5,0.3,0.8,0.5
					c0.2,0.2,0.3,0.5,0.4,0.8c0.1,0.3,0.1,0.7,0.1,1.1v3.9h1v1.4c-0.3,0-0.6,0.1-1,0.1c-0.4,0-0.7,0-0.9,0c-0.5,0-0.8-0.1-1-0.3
					c-0.2-0.2-0.3-0.5-0.3-0.9v-4c0-0.3-0.1-0.6-0.3-0.8c-0.1-0.1-0.2-0.2-0.4-0.2c-0.2,0-0.4,0-0.6,0c-0.2,0-0.4,0-0.6,0
					c-0.2,0-0.4,0-0.6,0.1c0,0.2,0,0.4,0,0.6v5.4h-2.2v-5.1c0-0.4-0.1-0.6-0.3-0.8c-0.1-0.1-0.2-0.2-0.4-0.2c-0.2,0-0.4,0-0.6,0
					c-0.2,0-0.4,0-0.6,0c-0.2,0-0.4,0-0.6,0.1v6h-2.2v-6.3H195v-1.4c0.3,0,0.6-0.1,1-0.1C196.3,418.7,196.7,418.7,197,418.7z"/>
				<path fill="#00577E" d="M211.7,423.4c0,0.2,0.1,0.4,0.1,0.7c0.1,0.2,0.2,0.4,0.3,0.6c0.2,0.2,0.4,0.3,0.7,0.4
					c0.3,0.1,0.7,0.1,1.2,0.1h2.3v1.4c-0.4,0.1-0.8,0.1-1.3,0.2c-0.5,0.1-1,0.1-1.6,0.1c-0.7,0-1.3-0.1-1.8-0.3
					c-0.5-0.2-0.9-0.4-1.3-0.7c-0.4-0.4-0.7-0.8-0.8-1.4c-0.2-0.5-0.2-1.1-0.2-1.8c0-0.6,0.1-1.2,0.2-1.7c0.2-0.5,0.4-0.9,0.7-1.3
					c0.3-0.4,0.7-0.6,1.2-0.8c0.5-0.2,1-0.3,1.7-0.3c1.2,0,2.1,0.3,2.7,1c0.6,0.7,0.9,1.6,0.9,2.9v0.7c0,0.1-0.1,0.2-0.2,0.2H211.7z
					 M214.5,421.9c0-0.5-0.1-0.9-0.4-1.2c-0.2-0.3-0.6-0.4-1.1-0.4c-0.5,0-0.8,0.1-1.1,0.4c-0.2,0.3-0.4,0.7-0.4,1.2H214.5z"/>
				<path fill="#00577E" d="M219.8,424.1c0,0.1,0.1,0.2,0.1,0.3c0,0.1,0,0.2,0.1,0.3c0,0.1,0,0.2,0.1,0.4c0.4,0.1,0.9,0.1,1.3,0.1
					c0.5,0,0.9-0.1,1.2-0.2c0.2-0.1,0.3-0.3,0.3-0.6c0-0.2-0.1-0.4-0.2-0.5c-0.1-0.1-0.4-0.2-0.8-0.2l-1.3-0.2
					c-0.5-0.1-0.9-0.2-1.2-0.3c-0.3-0.1-0.6-0.3-0.7-0.5c-0.4-0.4-0.6-0.9-0.6-1.6c0-0.4,0.1-0.7,0.2-1c0.1-0.3,0.3-0.5,0.5-0.7
					c0.3-0.3,0.7-0.5,1.2-0.6c0.5-0.1,1-0.2,1.6-0.2c0.5,0,0.9,0,1.4,0.1c0.5,0.1,0.9,0.1,1.1,0.2c0.1,0,0.2,0.1,0.3,0.2
					c0,0.1,0.1,0.2,0.1,0.3v2H223c-0.1-0.1-0.1-0.3-0.2-0.5c0-0.2-0.1-0.4-0.1-0.5c-0.2,0-0.4,0-0.6,0c-0.2,0-0.4,0-0.6,0
					c-0.9,0-1.3,0.2-1.3,0.7c0,0.2,0.1,0.4,0.2,0.5c0.1,0.1,0.4,0.2,0.8,0.3l1.2,0.2c0.5,0.1,0.9,0.2,1.2,0.3
					c0.3,0.1,0.5,0.3,0.7,0.5c0.4,0.4,0.6,0.9,0.6,1.6c0,0.8-0.3,1.4-0.9,1.9c-0.6,0.4-1.5,0.7-2.6,0.7c-0.7,0-1.2,0-1.7-0.1
					c-0.5,0-0.9-0.1-1.1-0.2c-0.2-0.1-0.2-0.1-0.3-0.2c0-0.1,0-0.2,0-0.3v-1.9H219.8z"/>
				<path fill="#00577E" d="M228.7,425.7c0,0.4-0.1,0.7-0.3,0.8c-0.2,0.2-0.5,0.3-0.9,0.3h-0.1c-0.4,0-0.7-0.1-0.9-0.3
					c-0.2-0.2-0.3-0.4-0.3-0.8v-0.2c0-0.4,0.1-0.7,0.3-0.9c0.2-0.2,0.5-0.3,0.9-0.3h0.1c0.4,0,0.7,0.1,0.9,0.3
					c0.2,0.2,0.3,0.4,0.3,0.9V425.7z"/>
			</g>
			<g>
				<path fill="#00577E" d="M106.5,363.1c6.1,0.9,10.7,3.1,13.9,6.6c3.2,3.5,4.7,7.9,4.7,13.3c0,3.1-0.5,6-1.5,8.8
					c-1,2.8-2.6,5.2-4.8,7.3c-2.1,1.9-4.9,3.5-8.5,4.5c-3.6,1.1-7.7,1.6-12.4,1.6c-3.2,0-6.3-0.2-9.5-0.5c-3.2-0.3-5.8-0.7-8-1.2
					v-9.8H93c3.3,0,6.2-0.2,8.7-0.5c2.5-0.3,4.5-1.3,6.1-2.9c1.6-1.6,2.4-3.9,2.4-6.8c0-3.4-1-5.9-2.9-7.5c-1.2-1-2.8-1.7-4.7-2
					c-1.9-0.3-4.5-0.5-7.7-0.5h-4.9c-0.1-0.5-0.2-1.2-0.3-1.9c0-0.7,0-1.4,0-2c0-1.1,0.2-2.3,0.6-3.4c0.4-1.1,1.2-2.4,2.5-3.8
					l15.2-17.3H90.1c-0.1,0.9-0.2,2.1-0.4,3.4c-0.2,1.3-0.4,2.4-0.7,3.1H78.9v-15c0-0.8,0.2-1.3,0.7-1.5c0.5-0.2,1.5-0.3,3.1-0.3
					h39.5c0.3,0.4,0.5,1,0.6,1.9c0.1,0.9,0.2,1.9,0.2,3c0,2.1-0.4,4-1.3,5.7c-0.8,1.7-2.1,3.4-3.7,5.1L106.5,363.1z"/>
				<path fill="#00577E" d="M184.3,369.5c0,5.9-0.5,11.1-1.4,15.5c-0.9,4.5-2.5,8.2-4.6,11.2c-2.1,3-4.9,5.2-8.2,6.7
					c-3.4,1.5-7.4,2.3-12.2,2.3s-8.8-0.8-12.2-2.3c-3.4-1.5-6.1-3.8-8.2-6.7c-2.1-3-3.6-6.7-4.6-11.2c-0.9-4.5-1.4-9.6-1.4-15.5
					c0-5.9,0.5-11.1,1.4-15.5c0.9-4.5,2.5-8.2,4.6-11.2c2.1-3,4.9-5.3,8.2-6.8c3.4-1.5,7.4-2.3,12.2-2.3s8.8,0.8,12.2,2.3
					c3.4,1.5,6.1,3.8,8.2,6.8c2.1,3,3.6,6.8,4.6,11.2C183.8,358.4,184.3,363.6,184.3,369.5z M169.2,369.5c0-4.8-0.2-8.7-0.7-11.9
					c-0.4-3.1-1.1-5.6-2-7.5c-0.9-1.8-2.1-3.2-3.5-3.9c-1.4-0.8-3.2-1.2-5.2-1.2c-2,0-3.7,0.4-5.2,1.2c-1.4,0.8-2.6,2.1-3.5,3.9
					c-0.9,1.8-1.6,4.3-2,7.5c-0.4,3.2-0.7,7.1-0.7,11.9c0,4.8,0.2,8.7,0.7,11.8c0.4,3.1,1.1,5.6,2,7.5c0.9,1.9,2.1,3.2,3.5,3.9
					c1.4,0.7,3.2,1.1,5.2,1.1c2,0,3.7-0.4,5.2-1.1c1.4-0.7,2.6-2,3.5-3.9c0.9-1.9,1.6-4.4,2-7.5C169,378.2,169.2,374.3,169.2,369.5z
					"/>
				<path fill="#00577E" d="M223.7,376.2c-5.6,1.9-10.6,2.9-14.9,2.9c-6.1,0-10.8-1.8-14.1-5.4c-3.3-3.6-5-8.9-5-16
					c0-7.5,2-13.4,6.1-17.6c4.1-4.3,10.1-6.4,18.1-6.4c4.6,0,8.5,0.7,11.7,2.1c3.1,1.4,5.7,3.5,7.6,6.2c1.9,2.7,3.3,6.2,4.2,10.2
					c0.8,4.1,1.3,8.7,1.3,14v1.9c0,13.1-2.5,22.5-7.4,28.3c-4.9,5.8-12.3,8.7-22.3,8.7c-2.3,0-4.8-0.2-7.5-0.5
					c-2.6-0.4-4.8-0.8-6.5-1.3V394h10.2c3.4,0,6.3-0.3,8.6-0.8c2.3-0.5,4.2-1.4,5.8-2.8c1.5-1.3,2.5-3.2,3.1-5.6
					C223.3,382.6,223.6,379.7,223.7,376.2z M223.9,363.5c0-6.6-0.7-11.3-2.1-14.3c-1.4-3-4.2-4.5-8.3-4.5c-3.2,0-5.6,1.1-7.2,3.2
					c-1.6,2.1-2.4,5.3-2.4,9.3c0,4.2,0.8,7,2.5,8.6c1.6,1.6,4.5,2.4,8.6,2.4c1.3,0,2.8-0.1,4.5-0.3c1.6-0.2,3.2-0.4,4.6-0.8V363.5z"
					/>
			</g>
		</g>
		<g>
			<path fill="#FFFFFF" d="M264.1,373.5c-0.2,0-0.3-0.1-0.3-0.2c0-0.1,0-0.2,0.1-0.4l5.2-7.6l-3.7-6.3h-2v-2.4h2.9
				c0.3,0,0.5,0,0.7,0c0.2,0,0.4,0.1,0.5,0.1c0.2,0.1,0.3,0.2,0.4,0.3c0.1,0.1,0.2,0.3,0.4,0.5l2.9,4.7l2.8-5.1
				c0.2-0.3,0.3-0.5,0.5-0.5c0.1-0.1,0.4-0.1,0.7-0.1h2.7c0.2,0,0.4,0.1,0.4,0.2c0,0.1-0.1,0.2-0.1,0.4l-5.3,7.6l3.8,6.2h2v2.4
				c-0.5,0.1-0.9,0.1-1.4,0.1c-0.5,0-0.9,0.1-1.3,0.1c-0.4,0-0.7,0-1-0.1c-0.3-0.1-0.5-0.1-0.7-0.3c-0.2-0.1-0.4-0.3-0.5-0.5
				c-0.2-0.2-0.3-0.4-0.5-0.7l-2.6-4.3l-2.7,5c-0.2,0.3-0.3,0.5-0.5,0.6c-0.2,0.1-0.4,0.1-0.7,0.1H264.1z"/>
			<path fill="#FFFFFF" d="M297,369.9v3.5h-12.6v-3.5h4.1v-17.1h-3.9v-3.4c0.4,0,0.8-0.1,1.3-0.2c0.5-0.1,1-0.1,1.5-0.1
				c0.5,0,1.1-0.1,1.6-0.1c0.5,0,1,0,1.4,0c1.2,0,2,0.2,2.5,0.5c0.4,0.4,0.7,1,0.7,1.9v18.6H297z"/>
			<path fill="#FFFFFF" d="M303.2,369.8h6.3c0-0.3,0-0.5,0-0.9c0-0.3,0-0.6,0.1-0.9c0-0.3,0.1-0.6,0.1-0.8c0-0.2,0.1-0.4,0.1-0.5
				h3.7v6c0,0.3-0.1,0.5-0.2,0.5c-0.2,0.1-0.5,0.1-1.1,0.1h-14.3c0-0.1-0.1-0.4-0.1-0.7c0-0.4,0-0.6,0-0.8c0-0.8,0.2-1.5,0.5-2.2
				c0.3-0.6,0.9-1.5,1.8-2.4l4.1-4.7c0.8-0.8,1.4-1.6,1.9-2.2c0.5-0.6,0.9-1.2,1.1-1.7c0.3-0.5,0.5-1,0.6-1.4
				c0.1-0.4,0.2-0.9,0.2-1.4c0-1.1-0.3-1.9-0.9-2.4c-0.4-0.4-1-0.6-1.7-0.7c-0.7-0.1-1.5-0.1-2.4-0.1h-4.5v-3.3
				c0.4-0.1,0.9-0.2,1.4-0.3c0.5-0.1,1.1-0.2,1.6-0.2c0.6-0.1,1.1-0.1,1.7-0.1c0.6,0,1.1-0.1,1.5-0.1c1.5,0,2.7,0.2,3.9,0.5
				c1.1,0.3,2,0.8,2.8,1.5c1.2,1.1,1.8,2.6,1.8,4.5c0,0.9-0.1,1.7-0.3,2.4c-0.2,0.7-0.5,1.5-0.9,2.2c-0.4,0.7-1,1.5-1.7,2.3
				c-0.7,0.8-1.5,1.7-2.4,2.7L303.2,369.8z"/>
			<path fill="#FFFFFF" d="M265.1,379.5c0.4,0,0.8,0.1,1,0.2c0.2,0.1,0.4,0.3,0.5,0.5c0.8-0.6,1.7-0.9,2.7-0.9
				c0.4,0,0.8,0.1,1.2,0.2c0.4,0.2,0.7,0.4,0.9,0.7c0.4-0.3,0.9-0.6,1.4-0.7c0.5-0.2,1.1-0.2,1.6-0.2c0.4,0,0.8,0.1,1.1,0.2
				c0.3,0.1,0.6,0.3,0.8,0.6c0.2,0.3,0.4,0.6,0.5,0.9c0.1,0.4,0.2,0.8,0.2,1.2v4.4h1.1v1.6c-0.3,0-0.7,0.1-1.1,0.1
				c-0.4,0-0.7,0.1-1,0.1c-0.6,0-0.9-0.1-1.1-0.3c-0.2-0.2-0.3-0.6-0.3-1v-4.4c0-0.4-0.1-0.7-0.3-0.9c-0.1-0.1-0.3-0.2-0.5-0.2
				c-0.2,0-0.4-0.1-0.6-0.1c-0.2,0-0.4,0-0.7,0c-0.2,0-0.5,0.1-0.7,0.1c0,0.2,0.1,0.5,0.1,0.7v6h-2.5v-5.7c0-0.4-0.1-0.7-0.3-0.9
				c-0.1-0.1-0.3-0.2-0.5-0.2c-0.2,0-0.4-0.1-0.6-0.1c-0.2,0-0.4,0-0.7,0c-0.2,0-0.5,0-0.7,0.1v6.7h-2.5v-7.1h-1.2v-1.6
				c0.3-0.1,0.7-0.1,1.1-0.1C264.4,379.5,264.8,379.5,265.1,379.5z"/>
			<path fill="#FFFFFF" d="M281.2,384.7c0,0.3,0.1,0.5,0.2,0.7c0.1,0.2,0.2,0.5,0.4,0.6c0.2,0.2,0.5,0.3,0.8,0.4
				c0.3,0.1,0.8,0.1,1.4,0.1h2.6v1.6c-0.4,0.1-0.9,0.2-1.5,0.2c-0.6,0.1-1.2,0.1-1.7,0.1c-0.8,0-1.5-0.1-2.1-0.3
				c-0.6-0.2-1-0.5-1.4-0.8c-0.4-0.4-0.7-0.9-0.9-1.5c-0.2-0.6-0.3-1.2-0.3-2c0-0.7,0.1-1.3,0.3-1.9c0.2-0.6,0.4-1,0.8-1.5
				c0.4-0.4,0.8-0.7,1.3-0.9c0.5-0.2,1.2-0.3,1.9-0.3c1.3,0,2.3,0.4,3,1.1c0.7,0.7,1,1.8,1,3.3v0.8c0,0.1-0.1,0.2-0.2,0.2H281.2z
				 M284.4,383.1c0-0.6-0.2-1-0.4-1.3c-0.3-0.3-0.7-0.5-1.2-0.5c-0.5,0-0.9,0.2-1.2,0.5c-0.3,0.3-0.4,0.8-0.4,1.3H284.4z"/>
			<path fill="#FFFFFF" d="M289.9,385.6c0,0.1,0.1,0.2,0.1,0.4c0,0.1,0,0.2,0.1,0.4c0,0.1,0.1,0.3,0.1,0.4c0.5,0.1,1,0.1,1.5,0.1
				c0.6,0,1-0.1,1.3-0.2c0.3-0.1,0.4-0.4,0.4-0.7c0-0.3-0.1-0.4-0.3-0.5c-0.2-0.1-0.4-0.2-0.8-0.3l-1.4-0.2c-0.6-0.1-1-0.2-1.4-0.4
				c-0.3-0.1-0.6-0.3-0.8-0.5c-0.4-0.4-0.6-1-0.6-1.8c0-0.4,0.1-0.8,0.2-1.1c0.1-0.3,0.3-0.6,0.6-0.8c0.3-0.3,0.8-0.6,1.4-0.7
				c0.6-0.1,1.2-0.2,1.8-0.2c0.5,0,1,0,1.6,0.1c0.5,0.1,1,0.1,1.3,0.2c0.2,0,0.3,0.1,0.3,0.2c0,0.1,0.1,0.2,0.1,0.3v2.2h-1.7
				c-0.1-0.2-0.1-0.4-0.2-0.6c0-0.2-0.1-0.4-0.1-0.6c-0.2,0-0.4,0-0.7,0c-0.2,0-0.5,0-0.7,0c-1,0-1.5,0.3-1.5,0.8
				c0,0.3,0.1,0.4,0.2,0.6c0.2,0.1,0.5,0.2,0.9,0.3l1.4,0.2c0.6,0.1,1,0.2,1.4,0.3c0.3,0.1,0.6,0.3,0.8,0.5c0.4,0.4,0.6,1,0.6,1.8
				c0,0.9-0.3,1.6-1,2.1c-0.7,0.5-1.7,0.7-3,0.7c-0.7,0-1.4,0-1.9-0.1c-0.6-0.1-1-0.1-1.2-0.2c-0.2-0.1-0.3-0.1-0.3-0.2
				c0-0.1-0.1-0.2-0.1-0.3v-2.1H289.9z"/>
			<path fill="#FFFFFF" d="M299.1,384.7c0,0.3,0.1,0.5,0.2,0.7c0.1,0.2,0.2,0.5,0.4,0.6c0.2,0.2,0.5,0.3,0.8,0.4
				c0.3,0.1,0.8,0.1,1.4,0.1h2.6v1.6c-0.4,0.1-0.9,0.2-1.5,0.2c-0.6,0.1-1.2,0.1-1.7,0.1c-0.8,0-1.5-0.1-2.1-0.3
				c-0.6-0.2-1-0.5-1.4-0.8c-0.4-0.4-0.7-0.9-0.9-1.5c-0.2-0.6-0.3-1.2-0.3-2c0-0.7,0.1-1.3,0.3-1.9c0.2-0.6,0.4-1,0.8-1.5
				c0.3-0.4,0.8-0.7,1.3-0.9c0.5-0.2,1.2-0.3,1.9-0.3c1.3,0,2.3,0.4,3,1.1c0.7,0.7,1,1.8,1,3.3v0.8c0,0.1-0.1,0.2-0.2,0.2H299.1z
				 M302.3,383.1c0-0.6-0.2-1-0.4-1.3c-0.3-0.3-0.7-0.5-1.2-0.5c-0.5,0-0.9,0.2-1.2,0.5c-0.3,0.3-0.4,0.8-0.4,1.3H302.3z"/>
			<path fill="#FFFFFF" d="M307.8,385.6c0,0.1,0.1,0.2,0.1,0.4c0,0.1,0.1,0.2,0.1,0.4c0,0.1,0.1,0.3,0.1,0.4c0.5,0.1,1,0.1,1.5,0.1
				c0.6,0,1-0.1,1.3-0.2c0.3-0.1,0.4-0.4,0.4-0.7c0-0.3-0.1-0.4-0.3-0.5c-0.2-0.1-0.4-0.2-0.8-0.3l-1.4-0.2c-0.6-0.1-1-0.2-1.4-0.4
				c-0.3-0.1-0.6-0.3-0.8-0.5c-0.4-0.4-0.6-1-0.6-1.8c0-0.4,0.1-0.8,0.2-1.1c0.1-0.3,0.3-0.6,0.6-0.8c0.3-0.3,0.8-0.6,1.4-0.7
				c0.6-0.1,1.2-0.2,1.8-0.2c0.5,0,1,0,1.6,0.1c0.5,0.1,1,0.1,1.3,0.2c0.2,0,0.3,0.1,0.3,0.2c0,0.1,0.1,0.2,0.1,0.3v2.2h-1.7
				c-0.1-0.2-0.1-0.4-0.2-0.6c0-0.2-0.1-0.4-0.1-0.6c-0.2,0-0.4,0-0.7,0c-0.2,0-0.5,0-0.7,0c-1,0-1.5,0.3-1.5,0.8
				c0,0.3,0.1,0.4,0.2,0.6c0.2,0.1,0.5,0.2,0.9,0.3l1.4,0.2c0.6,0.1,1,0.2,1.4,0.3c0.3,0.1,0.6,0.3,0.8,0.5c0.4,0.4,0.6,1,0.6,1.8
				c0,0.9-0.3,1.6-1,2.1c-0.7,0.5-1.7,0.7-3,0.7c-0.7,0-1.4,0-1.9-0.1c-0.6-0.1-1-0.1-1.2-0.2c-0.2-0.1-0.3-0.1-0.3-0.2
				c0-0.1-0.1-0.2-0.1-0.3v-2.1H307.8z"/>
		</g>
	</g>
</g>
</svg>
