<?xml version="1.0" encoding="utf-8"?>
<!-- Generator: Adobe Illustrator 18.1.1, SVG Export Plug-In . SVG Version: 6.00 Build 0)  -->
<!DOCTYPE svg PUBLIC "-//W3C//DTD SVG 1.1//EN" "http://www.w3.org/Graphics/SVG/1.1/DTD/svg11.dtd">
<svg version="1.1" id="Layer_1" xmlns="http://www.w3.org/2000/svg" xmlns:xlink="http://www.w3.org/1999/xlink" x="0px" y="0px"
	 viewBox="6 -6 512 512" enable-background="new 6 -6 512 512" xml:space="preserve">
<path id="twitter-5-icon" fill="#FFFFFF" d="M262,84c91.7,0,166,74.2,166,166c0,91.7-74.2,166-166,166c-91.7,0-166-74.2-166-166
	C96,158.3,170.2,84,262,84 M262,44C148.2,44,56,136.2,56,250s92.2,206,206,206s206-92.2,206-206S375.8,44,262,44L262,44z M374.8,196
	c-7.7,3.4-16,5.7-24.7,6.8c8.9-5.3,15.7-13.7,18.9-23.8c-8.3,4.9-17.5,8.5-27.3,10.4c-7.8-8.4-19-13.6-31.4-13.6
	c-27.8,0-48.2,25.9-41.9,52.8c-35.7-1.8-67.4-18.9-88.6-44.9c-11.3,19.3-5.8,44.6,13.3,57.4c-7-0.2-13.7-2.2-19.5-5.4
	c-0.5,19.9,13.8,38.6,34.5,42.7c-6.1,1.6-12.7,2-19.4,0.7c5.5,17.1,21.4,29.5,40.2,29.9c-18.1,14.2-40.8,20.5-63.7,17.8
	c19,12.2,41.6,19.3,65.9,19.3c79.8,0,124.9-67.4,122.2-127.9C361.7,212.2,369,204.6,374.8,196z"/>
</svg>
