<?xml version="1.0" encoding="utf-8"?>
<!-- Generator: Adobe Illustrator 18.1.1, SVG Export Plug-In . SVG Version: 6.00 Build 0)  -->
<!DOCTYPE svg PUBLIC "-//W3C//DTD SVG 1.1//EN" "http://www.w3.org/Graphics/SVG/1.1/DTD/svg11.dtd">
<svg version="1.1" id="Layer_1" xmlns="http://www.w3.org/2000/svg" xmlns:xlink="http://www.w3.org/1999/xlink" x="0px" y="0px"
	 viewBox="6 -6 512 512" enable-background="new 6 -6 512 512" xml:space="preserve">
<path id="youtube-5-icon" fill="#FFFFFF" d="M262,44C148.2,44,56,136.2,56,250s92.2,206,206,206c113.8,0,206-92.2,206-206
	S375.8,44,262,44z M262,416c-91.7,0-166-74.2-166-166c0-91.7,74.2-166,166-166c91.7,0,166,74.2,166,166C428,341.7,353.8,416,262,416
	z M195.5,135.7h13.2l9.1,34l8.4-34h13.4l-15.3,50.6v34.5h-13.2v-34.5L195.5,135.7z M239,205.2c0,11.1,5.8,16.8,17.1,16.8
	c9.4,0,16.8-6.3,16.8-16.8v-30.8c0-9.8-7.3-16.9-16.8-16.9c-10.3,0-17.1,6.8-17.1,16.9L239,205.2L239,205.2z M251,175.4
	c0-3.4,1.6-6,4.9-6c3.6,0,5.1,2.5,5.1,6v29.2c0,3.4-1.7,5.9-4.9,5.9c-3.2,0-5.1-2.6-5.1-5.9L251,175.4L251,175.4z M304.4,158v47.7
	c-1.4,1.8-4.6,4.7-6.9,4.7c-2.5,0-3.1-1.7-3.1-4.2V158h-11.7v52.5c0,6.2,1.9,11.2,8.2,11.2c3.5,0,8.4-1.8,13.5-7.8v6.9h11.7V158
	H304.4z M287.2,286.8c0.8,1,1.2,2.6,1.2,4.6v30.9c0,1.9-0.3,3.3-1,4.1c-1.2,1.6-3.9,1.5-5.7,0.6c-0.9-0.4-1.7-1.1-2.6-2.1v-37.3
	c0.8-0.8,1.5-1.4,2.3-1.8C283.4,284.8,285.9,285,287.2,286.8z M324.7,285.4c-4.1,0-5,2.9-5,7v6.1h9.8v-6.1
	C329.5,288.4,328.7,285.4,324.7,285.4z M358.6,329.5c0,14.8-12,26.8-26.8,26.8H194.2c-14.8,0-26.8-12-26.8-26.8v-67.6
	c0-14.8,12-26.8,26.8-26.8h137.6c14.8,0,26.8,12,26.8,26.8L358.6,329.5L358.6,329.5z M212.5,267h13v-11.8H187V267h13v69.3h12.5
	L212.5,267L212.5,267z M257.1,276.5h-11.1v45.4c-1.4,1.7-4.4,4.5-6.5,4.5c-2.4,0-3-1.6-3-4v-45.9h-11.1v50c0,12.1,8.2,12.2,14.2,8.8
	c2.2-1.3,4.3-3.1,6.4-5.6v6.6h11.1V276.5L257.1,276.5z M299.9,290.7c0-8.1-2.7-15-10.8-15c-4,0-7.4,2.5-9.9,5.6v-26.1h-11.2v81.1
	h11.2v-4.6c3.1,3.9,6.5,5.4,10.6,5.4c7.4,0,10.2-5.7,10.2-13.1L299.9,290.7L299.9,290.7z M341,292.5c0-10.8-5.2-17.6-15.8-17.6
	c-10,0-16.9,7.2-16.9,17.6v26.8c0,10.8,5.4,18.5,16,18.5c11.7,0,16.7-7,16.7-18.5v-4.5h-11.4v4.2c0,5.2-0.3,8.4-5,8.4
	c-4.5,0-4.9-3.9-4.9-8.4v-11.3H341L341,292.5L341,292.5z"/>
</svg>
